<?xml version="1.0" encoding="UTF-8"?>
<svg width="192px" height="148px" viewBox="0 0 192 148" version="1.1" xmlns="http://www.w3.org/2000/svg" xmlns:xlink="http://www.w3.org/1999/xlink">
    <!-- Generator: Sketch 48.1 (47250) - http://www.bohemiancoding.com/sketch -->
    <title>Group 7</title>
    <desc>Created with Sketch.</desc>
    <defs></defs>
    <g id="dashboard-light-(data-table)-copy" stroke="none" stroke-width="1" fill="none" fill-rule="evenodd" transform="translate(-25.000000, -128.000000)">
        <g id="side-panel" transform="translate(0.000000, 70.000000)">
            <g id="Group-7" transform="translate(25.000000, 58.000000)">
                <g id="Group-3" opacity="0.5">
                    <rect id="Rectangle-10" fill="#06414E" x="0" y="0" width="94" height="72"></rect>
                    <text id="Alerts" font-family="GEInspiraSans-Regular, GE Inspira Sans" font-size="10" font-weight="normal" fill="#FFFFFF">
                        <tspan x="34.46" y="59">Alerts</tspan>
                    </text>
                </g>
                <g id="Group-3-Copy" transform="translate(0.000000, 76.000000)">
                    <rect id="Rectangle-10" fill="#06414E" x="0" y="0" width="94" height="72"></rect>
                    <text id="Muti-Well-Optimiz…" font-family="GEInspiraSans-Regular, GE Inspira Sans" font-size="10" font-weight="normal" fill="#FFFFFF">
                        <tspan x="5.91" y="59">Muti-Well Optimiz…</tspan>
                    </text>
                    <g id="Group" transform="translate(34.000000, 15.000000)" stroke="#FFFFFF" stroke-width="0.5">
                        <g id="Group-5">
                            <rect id="Rectangle-11" x="0.25" y="0.25" width="6.5" height="13.5"></rect>
                            <rect id="Rectangle-11-Copy" x="9.25" y="0.25" width="6.5" height="13.5"></rect>
                            <rect id="Rectangle-11-Copy-3" x="0.25" y="15.25" width="6.5" height="6.5"></rect>
                            <rect id="Rectangle-11-Copy-4" x="9.25" y="15.25" width="6.5" height="6.5"></rect>
                            <rect id="Rectangle-11-Copy-2" x="18.25" y="0.25" width="6.5" height="13.5"></rect>
                            <rect id="Rectangle-11-Copy-5" x="18.25" y="15.25" width="6.5" height="6.5"></rect>
                        </g>
                    </g>
                </g>
                <g id="Group-4" opacity="0.5" transform="translate(98.000000, 0.000000)">
                    <rect id="Rectangle-10-Copy" fill="#06414E" x="0" y="0" width="94" height="72"></rect>
                    <text id="Cases" font-family="GEInspiraSans-Regular, GE Inspira Sans" font-size="10" font-weight="normal" fill="#FFFFFF">
                        <tspan x="34.445" y="59">Cases</tspan>
                    </text>
                </g>
                <g id="alert" opacity="0.5" transform="translate(32.000000, 13.000000)" fill="#FFFFFF" fill-rule="nonzero">
                    <path d="M16.40625,19.6875 L13.59375,19.6875 C13.3125,19.6875 13.125,19.875 13.125,20.15625 L13.125,22.96875 C13.125,23.25 13.3125,23.4375 13.59375,23.4375 L16.40625,23.4375 C16.6875,23.4375 16.875,23.25 16.875,22.96875 L16.875,20.15625 C16.875,19.875 16.6875,19.6875 16.40625,19.6875 Z M15.9375,22.5 L14.0625,22.5 L14.0625,20.625 L15.9375,20.625 L15.9375,22.5 Z M17.71875,10.5 C17.625,10.40625 17.53125,10.3125 17.34375,10.3125 L12.65625,10.3125 C12.5625,10.3125 12.375,10.40625 12.28125,10.5 C12.1875,10.59375 12.1875,10.6875 12.1875,10.78125 L12.9375,18.28125 C12.9375,18.5625 13.125,18.75 13.40625,18.75 L16.5,18.75 C16.6875,18.75 16.96875,18.5625 16.96875,18.28125 L17.71875,10.78125 C17.8125,10.6875 17.8125,10.59375 17.71875,10.5 Z M16.125,17.8125 L13.875,17.8125 L13.125,11.25 L16.875,11.25 L16.125,17.8125 Z M29.71875,24.1875 L16.6875,1.03125 C16.40625,0.375 15.75,0 15,0 C14.25,0 13.59375,0.375 13.3125,1.03125 L0.28125,24.1875 C-0.09375,24.84375 -0.09375,25.59375 0.28125,26.25 C0.65625,26.90625 1.3125,27.1875 1.96875,27.1875 L28.03125,27.1875 C28.78125,27.1875 29.34375,26.8125 29.71875,26.25 C30.09375,25.59375 30.09375,24.84375 29.71875,24.1875 Z M28.875,25.78125 C28.6875,26.0625 28.3125,26.25 27.9375,26.25 L1.96875,26.25 C1.59375,26.25 1.21875,26.0625 1.03125,25.78125 C0.84375,25.40625 0.84375,25.03125 1.03125,24.65625 L14.0625,1.5 C14.25,1.125 14.625,0.9375 15,0.9375 C15.375,0.9375 15.75,1.125 15.9375,1.5 L28.96875,24.65625 C29.0625,24.9375 29.0625,25.40625 28.875,25.78125 Z" id="path-1"></path>
                </g>
                <g id="cases" opacity="0.5" transform="translate(130.000000, 12.000000)" fill="#FFFFFF" fill-rule="nonzero">
                    <path d="M29.516129,3.8709677 L21.1935484,3.8709677 L18.6774194,0.19354839 C18.5806452,0.09677419 18.483871,0 18.2903226,0 L11.7096774,0 C11.516129,0 11.4193548,0.09677419 11.3225806,0.19354839 L8.7096774,3.8709677 L0.48387097,3.8709677 C0.19354839,3.8709677 0,4.0645161 0,4.3548387 L0,12.0967742 C0,12.2903226 0.09677419,12.3870968 0.29032258,12.483871 C3.9677419,14.6129032 8.0322581,15.8709677 12.1935484,16.2580645 L12.1935484,17.9032258 C12.1935484,18.1935484 12.3870968,18.3870968 12.6774194,18.3870968 L17.3225806,18.3870968 C17.6129032,18.3870968 17.8064516,18.1935484 17.8064516,17.9032258 L17.8064516,16.2580645 C23.0322581,15.7741935 27.1935484,13.9354839 29.7096774,12.483871 C29.9032258,12.3870968 30,12.1935484 30,12.0967742 L30,4.3548387 C30,4.0645161 29.8064516,3.8709677 29.516129,3.8709677 Z M12,0.96774194 L18.0967742,0.96774194 L20.1290323,3.8709677 L9.8709677,3.8709677 L12,0.96774194 Z M16.8387097,17.4193548 L13.1612903,17.4193548 L13.1612903,14.516129 L16.8387097,14.516129 L16.8387097,17.4193548 Z M29.0322581,11.8064516 C26.516129,13.1612903 22.7419355,14.8064516 17.8064516,15.2903226 L17.8064516,14.0322581 C17.8064516,13.7419355 17.6129032,13.5483871 17.3225806,13.5483871 L12.6774194,13.5483871 C12.3870968,13.5483871 12.1935484,13.7419355 12.1935484,14.0322581 L12.1935484,15.2903226 C8.3225806,14.9032258 4.4516129,13.7419355 0.96774194,11.8064516 L0.96774194,4.8387097 L29.0322581,4.8387097 L29.0322581,11.8064516 Z M29.0322581,25.1612903 L29.0322581,14.516129 L30,14.516129 L30,25.6451613 C30,25.9354839 29.8064516,26.1290323 29.516129,26.1290323 L0.48387097,26.1290323 C0.19354839,26.1290323 0,25.9354839 0,25.6451613 L0,14.516129 L0.96774194,14.516129 L0.96774194,25.1612903 L29.0322581,25.1612903 Z" id="path-1"></path>
                </g>
                <g id="Group-6" opacity="0.5" transform="translate(98.000000, 76.000000)">
                    <g id="Group-4-Copy">
                        <rect id="Rectangle-10-Copy" fill="#06414E" x="0" y="0" width="94" height="72"></rect>
                        <text id="Chart-Library" font-family="GEInspiraSans-Regular, GE Inspira Sans" font-size="10" font-weight="normal" fill="#FFFFFF">
                            <tspan x="20.14" y="59">Chart Library</tspan>
                        </text>
                    </g>
                    <g id="Group-2" transform="translate(31.000000, 17.000000)" stroke="#FFFFFF">
                        <polyline id="Path-5" points="1 0 1 18.4129037 30.255364 18.4129037"></polyline>
                        <path d="M0.875976562,12.7441406 C6.25748698,6.54882812 10.4928385,5 13.5820312,8.09765625 C16.671224,11.1953125 21.9375,10.2828776 29.3808594,5.36035156" id="Path-6"></path>
                    </g>
                </g>
            </g>
        </g>
    </g>
</svg>