<?xml version="1.0" encoding="UTF-8"?>
<svg width="106px" height="106px" viewBox="0 0 106 106" version="1.1" xmlns="http://www.w3.org/2000/svg" xmlns:xlink="http://www.w3.org/1999/xlink">
    <!-- Generator: Sketch 47 (45396) - http://www.bohemiancoding.com/sketch -->
    <title>ge_logo</title>
    <desc>Created with Sketch.</desc>
    <defs></defs>
    <g id="Page-1" stroke="none" stroke-width="1" fill="none" fill-rule="evenodd">
        <path d="M43.575,56.541 C37.019,59.725 28.699,65.421 28.699,71.677 C28.699,74 29.862,75.462 32.035,75.462 C38.441,75.462 42.376,65.271 43.575,56.541 Z M45.299,29.262 C45.299,28.551 44.887,28.251 44.287,28.251 C41.215,28.251 36.869,36.269 36.869,41.065 C41.665,38.441 45.299,32.485 45.299,29.262 Z M71.114,29.862 C71.114,29.15 70.965,28.251 70.065,28.251 C67.893,28.251 64.407,32.934 64.407,38.892 C68.754,35.109 71.114,31.886 71.114,29.862 Z M81.869,66.58 C81.869,73.139 76.212,79.996 67.893,79.996 C57.851,79.996 52.755,71.527 52.755,63.96 C52.755,53.318 60.024,48.822 63.096,47.211 C62.498,46.761 62.048,46.199 61.636,45.448 C58.112,47.922 54.929,50.134 48.222,53.917 C47.922,58.565 47.511,63.659 46.311,67.181 C43.839,74.6 38.742,79.996 32.035,79.996 C26.378,79.996 23.604,75.912 23.604,71.527 C23.604,68.342 25.479,64.259 28.85,61.186 C33.085,57.403 37.73,55.078 44.139,51.705 C44.287,50.845 44.438,49.983 44.587,48.934 C42.976,50.395 40.653,50.995 38.742,50.995 C35.707,50.995 33.197,48.371 32.635,45.599 C28.551,45.3 25.479,42.376 25.327,37.731 C25.327,34.396 26.64,31.473 28.85,31.473 C29.712,31.473 30.013,32.185 30.013,32.784 C30.013,33.346 29.263,35.257 29.263,37.132 C29.263,39.043 30.162,41.514 32.485,41.514 C32.485,33.947 38.03,24.167 44.587,24.167 C48.934,24.167 49.533,27.389 49.533,28.851 C49.533,35.708 42.677,43.277 37.132,45.149 C37.28,45.749 37.881,47.361 39.643,47.361 C41.814,47.361 44.438,45.3 45.749,43.688 C46.311,40.653 48.521,36.269 51.444,36.269 C52.605,36.269 53.167,37.132 53.167,38.181 C53.167,40.353 50.845,43.125 49.083,44.999 C48.822,46.461 48.671,48.071 48.671,49.383 C53.767,46.31 56.39,44.737 60.175,41.964 C59.875,40.952 59.875,39.754 59.875,38.593 C59.875,31.773 64.407,24.167 70.366,24.167 C73.737,24.167 75.461,26.527 75.461,29.15 C75.461,34.096 71.228,38.441 65.27,42.976 C65.72,44.139 66.431,45.149 67.594,45.749 C67.742,45.448 69.654,45.149 71.228,45.149 C72.988,45.149 75.461,45.599 75.461,47.361 C75.461,49.383 72.688,49.834 70.517,49.834 C69.354,49.983 67.443,49.533 67.443,49.533 C64.258,50.395 58.112,54.066 58.112,63.359 C58.112,69.654 62.048,75.462 68.191,75.462 C72.839,75.462 76.622,71.978 76.773,66.58 C76.773,63.098 75.311,59.426 71.826,59.426 C70.065,59.426 68.491,60.737 68.491,62.647 C68.342,65.571 70.517,65.87 70.517,67.743 C70.517,69.055 69.505,69.654 68.491,69.654 C65.57,69.654 63.358,66.732 63.358,63.098 C63.358,58.713 67.18,55.078 72.126,55.078 C78.533,55.078 81.869,60.624 81.869,66.58 Z M99.516,52.605 C99.516,35.97 91.049,18.772 72.839,13.263 C69.054,12.102 65.87,11.353 62.196,11.353 C53.767,11.353 53.467,16.149 49.533,16.149 C47.36,16.149 45.898,14.575 45.898,12.664 C45.898,9.329 49.833,6.706 56.09,6.706 C61.936,6.706 66.431,8.168 67.294,8.58 L67.443,8.168 C65.87,7.569 60.323,5.657 52.605,5.657 C35.819,5.657 18.771,14.275 13.264,32.336 C12.103,36.12 11.353,39.342 11.353,42.976 C11.353,51.445 16.148,51.857 16.148,55.792 C16.148,57.852 14.574,59.312 12.665,59.312 C9.329,59.312 6.706,55.491 6.706,49.083 C6.706,43.277 8.168,38.742 8.43,37.88 L8.019,37.731 C7.569,39.49 5.657,44.887 5.657,52.605 C5.657,69.505 14.275,86.553 32.335,92.098 C36.12,93.26 39.341,93.972 42.976,93.972 C51.444,93.972 51.706,89.027 55.641,89.027 C57.701,89.027 59.313,90.637 59.313,92.661 C59.313,95.882 55.49,98.505 49.083,98.505 C43.276,98.505 38.593,97.044 37.881,96.745 L37.73,97.195 C39.341,97.905 44.887,99.517 52.605,99.517 C69.354,99.517 86.553,91.049 91.947,72.839 C93.109,69.205 93.821,65.87 93.821,62.347 C93.821,53.767 89.025,53.468 89.025,49.533 C89.025,47.361 90.486,45.899 92.51,45.899 C95.882,45.899 98.505,49.834 98.505,56.239 C98.505,61.935 97.044,66.432 96.744,67.443 L97.193,67.594 C97.756,65.87 99.516,60.475 99.516,52.605 Z M102.702,52.605 C102.702,80.296 80.295,102.703 52.605,102.703 C24.916,102.703 2.473,80.296 2.473,52.605 C2.473,24.916 24.916,2.472 52.605,2.472 C80.295,2.472 102.702,25.066 102.702,52.605 Z M105.211,52.605 C105.211,23.605 81.606,2.84217094e-14 52.605,2.84217094e-14 C23.604,2.84217094e-14 0,23.605 0,52.605 C0,81.718 23.604,105.212 52.605,105.212 C81.606,105.212 105.211,81.718 105.211,52.605 Z" id="ge_logo" fill="#0067A5"></path>
    </g>
</svg>