<?xml version="1.0" encoding="UTF-8"?>
<svg width="204px" height="30px" viewBox="0 0 204 30" version="1.1" xmlns="http://www.w3.org/2000/svg" xmlns:xlink="http://www.w3.org/1999/xlink">
    <!-- Generator: Sketch 49.1 (51147) - http://www.bohemiancoding.com/sketch -->
    <title>IntelliStream</title>
    <desc>Created with Sketch.</desc>
    <defs></defs>
    <g id="Page-1" stroke="none" stroke-width="1" fill="none" fill-rule="evenodd">
        <g id="IS-logo-@2x" transform="translate(-211.000000, -245.000000)" fill="#000000">
            <path d="M211.95,274 L216.7,247.096 L221.374,247.096 L216.624,274 M228.67181,258.61 C229.305146,257.621995 230.109471,256.81767 231.08481,256.197 C232.060148,255.57633 233.231803,255.266 234.59981,255.266 C235.613148,255.266 236.493473,255.417998 237.24081,255.722 C237.988147,256.026002 238.608807,256.431331 239.10281,256.938 C239.596812,257.444669 239.964142,258.04633 240.20481,258.743 C240.445477,259.43967 240.56581,260.167996 240.56581,260.928 C240.56581,261.561336 240.515143,262.131331 240.41381,262.638 L238.39981,274 L233.95381,274 L235.70181,263.968 C235.752477,263.663998 235.796809,263.360002 235.83481,263.056 C235.87281,262.751998 235.89181,262.448002 235.89181,262.144 C235.89181,261.333329 235.676478,260.61767 235.24581,259.997 C234.815141,259.37633 234.029815,259.066 232.88981,259.066 C232.155139,259.066 231.509146,259.205332 230.95181,259.484 C230.394474,259.762668 229.906812,260.136331 229.48881,260.605 C229.070808,261.073669 228.728811,261.59933 228.46281,262.182 C228.196808,262.76467 228.013143,263.359997 227.91181,263.968 L226.12581,274 L221.67981,274 L224.18781,259.674 C224.289143,259.192664 224.396809,258.572004 224.51081,257.812 C224.62481,257.051996 224.707143,256.368003 224.75781,255.76 L228.93781,255.76 C228.912476,256.038668 228.86181,256.475664 228.78581,257.071 C228.709809,257.666336 228.646477,258.179331 228.59581,258.61 L228.67181,258.61 Z M242.619619,259.37 L243.265619,255.76 L246.419619,255.76 L247.331619,250.44 L251.739619,250.44 L250.827619,255.76 L254.931619,255.76 L254.285619,259.37 L250.257619,259.37 L248.661619,267.958 C248.585619,268.338002 248.547619,268.692665 248.547619,269.022 C248.547619,269.68067 248.743951,270.136665 249.136619,270.39 C249.529288,270.643335 250.054949,270.77 250.713619,270.77 C251.017621,270.77 251.315284,270.744667 251.606619,270.694 C251.897954,270.643333 252.170285,270.58 252.423619,270.504 L252.157619,273.886 C251.777617,274.038001 251.327955,274.158333 250.808619,274.247 C250.289283,274.335667 249.814288,274.38 249.383619,274.38 C247.458276,274.38 246.09029,273.993671 245.279619,273.221 C244.468949,272.448329 244.063619,271.428673 244.063619,270.162 C244.063619,269.807332 244.082619,269.421002 244.120619,269.003 C244.158619,268.584998 244.215619,268.198668 244.291619,267.844 L245.849619,259.37 L242.619619,259.37 Z M258.961429,266.286 C258.936095,266.412667 258.923429,266.551999 258.923429,266.704 C258.923429,267.312003 259.043761,267.869331 259.284429,268.376 C259.525097,268.882669 259.86076,269.319665 260.291429,269.687 C260.722098,270.054335 261.228759,270.345666 261.811429,270.561 C262.394098,270.776334 263.027425,270.884 263.711429,270.884 C264.876768,270.884 265.871091,270.668669 266.694429,270.238 C267.517766,269.807331 268.258759,269.22467 268.917429,268.49 L271.463429,270.884 C269.208751,273.316012 266.460112,274.532 263.217429,274.532 C261.976089,274.532 260.836101,274.348335 259.797429,273.981 C258.758757,273.613665 257.859433,273.088003 257.099429,272.404 C256.339425,271.719997 255.744098,270.877672 255.313429,269.877 C254.88276,268.876328 254.667429,267.730006 254.667429,266.438 C254.667429,264.867325 254.933426,263.40434 255.465429,262.049 C255.997432,260.69366 256.738424,259.509338 257.688429,258.496 C258.638434,257.482662 259.765756,256.691003 261.070429,256.121 C262.375102,255.550997 263.800088,255.266 265.345429,255.266 C266.434768,255.266 267.441758,255.417998 268.366429,255.722 C269.2911,256.026002 270.095425,256.481997 270.779429,257.09 C271.463432,257.698003 271.995427,258.457995 272.375429,259.37 C272.755431,260.282005 272.945429,261.345994 272.945429,262.562 C272.945429,262.967335 272.907429,263.530996 272.831429,264.253 C272.755428,264.975004 272.64143,265.652664 272.489429,266.286 L258.961429,266.286 Z M268.841429,263.094 C268.866762,262.916666 268.885762,262.752001 268.898429,262.6 C268.911096,262.447999 268.917429,262.296001 268.917429,262.144 C268.917429,261.155995 268.569099,260.320003 267.872429,259.636 C267.175759,258.951997 266.194102,258.61 264.927429,258.61 C264.142092,258.61 263.432765,258.749332 262.799429,259.028 C262.166092,259.306668 261.615098,259.667664 261.146429,260.111 C260.67776,260.554336 260.29143,261.041997 259.987429,261.574 C259.683427,262.106003 259.480763,262.612664 259.379429,263.094 L268.841429,263.094 Z M274.695238,274 L279.749238,245.272 L284.233238,245.272 L279.141238,274 L274.695238,274 Z M283.665048,274 L288.719048,245.272 L293.203048,245.272 L288.111048,274 L283.665048,274 Z M292.634858,274 L295.826858,255.76 L300.310858,255.76 L297.080858,274 L292.634858,274 Z M301.792858,249.49 C301.792858,250.22467 301.533194,250.870664 301.013858,251.428 C300.494522,251.985336 299.854862,252.264 299.094858,252.264 C298.360187,252.264 297.733194,252.036002 297.213858,251.58 C296.694522,251.123998 296.434858,250.478004 296.434858,249.642 C296.434858,248.831329 296.713522,248.166336 297.270858,247.647 C297.828194,247.127664 298.474187,246.868 299.208858,246.868 C299.943528,246.868 300.557855,247.102331 301.051858,247.571 C301.54586,248.039669 301.792858,248.679329 301.792858,249.49 Z M318.704667,252.644 C318.197998,251.833329 317.533005,251.238002 316.709667,250.858 C315.88633,250.477998 314.993339,250.288 314.030667,250.288 C313.549332,250.288 313.017337,250.363999 312.434667,250.516 C311.851998,250.668001 311.31367,250.902332 310.819667,251.219 C310.325665,251.535668 309.914002,251.959997 309.584667,252.492 C309.255332,253.024003 309.090667,253.669996 309.090667,254.43 C309.090667,255.392671 309.426331,256.139997 310.097667,256.672 C310.769004,257.204003 311.674662,257.685331 312.814667,258.116 C315.170679,258.977338 316.981994,260.009661 318.248667,261.213 C319.51534,262.416339 320.148667,264.04399 320.148667,266.096 C320.148667,267.641341 319.84467,268.958661 319.236667,270.048 C318.628664,271.137339 317.830672,272.023997 316.842667,272.708 C315.854662,273.392003 314.740007,273.892332 313.498667,274.209 C312.257328,274.525668 311.00334,274.684 309.736667,274.684 C308.849996,274.684 307.957005,274.595334 307.057667,274.418 C306.15833,274.240666 305.303338,273.974668 304.492667,273.62 C303.681997,273.265332 302.928338,272.815669 302.231667,272.271 C301.534997,271.726331 300.946003,271.074004 300.464667,270.314 L304.264667,267.692 C304.771337,268.578671 305.537662,269.306997 306.563667,269.877 C307.589672,270.447003 308.723328,270.732 309.964667,270.732 C310.598004,270.732 311.224998,270.656001 311.845667,270.504 C312.466337,270.351999 313.023665,270.105002 313.517667,269.763 C314.01167,269.420998 314.416999,268.977669 314.733667,268.433 C315.050336,267.888331 315.208667,267.210671 315.208667,266.4 C315.208667,265.791997 315.075669,265.253669 314.809667,264.785 C314.543666,264.316331 314.189003,263.904668 313.745667,263.55 C313.302332,263.195332 312.789337,262.878668 312.206667,262.6 C311.623998,262.321332 311.003337,262.068001 310.344667,261.84 C309.533997,261.535998 308.767671,261.194002 308.045667,260.814 C307.323664,260.433998 306.684003,259.971669 306.126667,259.427 C305.569331,258.882331 305.132336,258.230004 304.815667,257.47 C304.498999,256.709996 304.340667,255.810672 304.340667,254.772 C304.340667,253.429327 304.625665,252.238672 305.195667,251.2 C305.76567,250.161328 306.519329,249.287337 307.456667,248.578 C308.394005,247.868663 309.476995,247.330335 310.705667,246.963 C311.93434,246.595665 313.207327,246.412 314.524667,246.412 C315.208671,246.412 315.911664,246.487999 316.633667,246.64 C317.355671,246.792001 318.052331,247.013665 318.723667,247.305 C319.395004,247.596335 320.028331,247.957331 320.623667,248.388 C321.219004,248.818669 321.719332,249.32533 322.124667,249.908 L318.704667,252.644 Z M321.936477,259.37 L322.582477,255.76 L325.736477,255.76 L326.648477,250.44 L331.056477,250.44 L330.144477,255.76 L334.248477,255.76 L333.602477,259.37 L329.574477,259.37 L327.978477,267.958 C327.902477,268.338002 327.864477,268.692665 327.864477,269.022 C327.864477,269.68067 328.060808,270.136665 328.453477,270.39 C328.846146,270.643335 329.371807,270.77 330.030477,270.77 C330.334479,270.77 330.632142,270.744667 330.923477,270.694 C331.214812,270.643333 331.487142,270.58 331.740477,270.504 L331.474477,273.886 C331.094475,274.038001 330.644813,274.158333 330.125477,274.247 C329.606141,274.335667 329.131146,274.38 328.700477,274.38 C326.775134,274.38 325.407148,273.993671 324.596477,273.221 C323.785806,272.448329 323.380477,271.428673 323.380477,270.162 C323.380477,269.807332 323.399477,269.421002 323.437477,269.003 C323.475477,268.584998 323.532477,268.198668 323.608477,267.844 L325.166477,259.37 L321.936477,259.37 Z M340.672287,258.8 C341.305623,257.735995 342.052949,256.881003 342.914287,256.235 C343.775624,255.588997 344.814281,255.266 346.030287,255.266 C346.207621,255.266 346.397619,255.272333 346.600287,255.285 C346.802954,255.297667 346.980286,255.329333 347.132287,255.38 L346.524287,259.522 C346.245619,259.446 345.998621,259.395333 345.783287,259.37 C345.567952,259.344667 345.358954,259.332 345.156287,259.332 C344.117615,259.332 343.268957,259.521998 342.610287,259.902 C341.951617,260.282002 341.419622,260.737997 341.014287,261.27 C340.608951,261.802003 340.317621,262.346664 340.140287,262.904 C339.962952,263.461336 339.848954,263.904665 339.798287,264.234 L338.088287,274 L333.642287,274 L336.188287,259.674 C336.28962,259.192664 336.397286,258.572004 336.511287,257.812 C336.625287,257.051996 336.70762,256.368003 336.758287,255.76 L340.938287,255.76 C340.938287,255.886667 340.92562,256.076665 340.900287,256.33 C340.874953,256.583335 340.843287,256.861998 340.805287,257.166 C340.767286,257.470002 340.729287,257.767665 340.691287,258.059 C340.653286,258.350335 340.62162,258.597332 340.596287,258.8 L340.672287,258.8 Z M349.528096,266.286 C349.502763,266.412667 349.490096,266.551999 349.490096,266.704 C349.490096,267.312003 349.610428,267.869331 349.851096,268.376 C350.091764,268.882669 350.427427,269.319665 350.858096,269.687 C351.288765,270.054335 351.795427,270.345666 352.378096,270.561 C352.960766,270.776334 353.594093,270.884 354.278096,270.884 C355.443435,270.884 356.437759,270.668669 357.261096,270.238 C358.084434,269.807331 358.825426,269.22467 359.484096,268.49 L362.030096,270.884 C359.775418,273.316012 357.026779,274.532 353.784096,274.532 C352.542757,274.532 351.402768,274.348335 350.364096,273.981 C349.325424,273.613665 348.4261,273.088003 347.666096,272.404 C346.906092,271.719997 346.310765,270.877672 345.880096,269.877 C345.449427,268.876328 345.234096,267.730006 345.234096,266.438 C345.234096,264.867325 345.500094,263.40434 346.032096,262.049 C346.564099,260.69366 347.305091,259.509338 348.255096,258.496 C349.205101,257.482662 350.332423,256.691003 351.637096,256.121 C352.941769,255.550997 354.366755,255.266 355.912096,255.266 C357.001435,255.266 358.008425,255.417998 358.933096,255.722 C359.857768,256.026002 360.662093,256.481997 361.346096,257.09 C362.0301,257.698003 362.562094,258.457995 362.942096,259.37 C363.322098,260.282005 363.512096,261.345994 363.512096,262.562 C363.512096,262.967335 363.474097,263.530996 363.398096,264.253 C363.322096,264.975004 363.208097,265.652664 363.056096,266.286 L349.528096,266.286 Z M359.408096,263.094 C359.43343,262.916666 359.45243,262.752001 359.465096,262.6 C359.477763,262.447999 359.484096,262.296001 359.484096,262.144 C359.484096,261.155995 359.135766,260.320003 358.439096,259.636 C357.742426,258.951997 356.760769,258.61 355.494096,258.61 C354.708759,258.61 353.999433,258.749332 353.366096,259.028 C352.73276,259.306668 352.181765,259.667664 351.713096,260.111 C351.244427,260.554336 350.858098,261.041997 350.554096,261.574 C350.250095,262.106003 350.04743,262.612664 349.946096,263.094 L359.408096,263.094 Z M377.801906,262.448 C377.852573,262.143998 377.884239,261.909667 377.896906,261.745 C377.909573,261.580333 377.915906,261.422001 377.915906,261.27 C377.915906,260.383329 377.630909,259.750002 377.060906,259.37 C376.490903,258.989998 375.648578,258.8 374.533906,258.8 C373.647235,258.8 372.728911,258.970998 371.778906,259.313 C370.828901,259.655002 369.986576,260.091997 369.251906,260.624 L367.541906,257.622 C368.580578,256.88733 369.764899,256.311002 371.094906,255.893 C372.424913,255.474998 373.786566,255.266 375.179906,255.266 C376.041244,255.266 376.896235,255.360999 377.744906,255.551 C378.593577,255.741001 379.353569,256.051331 380.024906,256.482 C380.696243,256.912669 381.234571,257.47633 381.639906,258.173 C382.045241,258.86967 382.247906,259.737328 382.247906,260.776 C382.247906,261.004001 382.235239,261.282665 382.209906,261.612 C382.184572,261.941335 382.146573,262.232665 382.095906,262.486 L380.765906,269.896 C380.639239,270.605337 380.531573,271.339996 380.442906,272.1 C380.354239,272.860004 380.309906,273.493331 380.309906,274 L376.205906,274 C376.205906,273.315997 376.281905,272.594004 376.433906,271.834 L376.357906,271.834 C374.939232,273.531342 372.963252,274.38 370.429906,274.38 C369.796569,274.38 369.137909,274.304001 368.453906,274.152 C367.769902,273.999999 367.149242,273.740335 366.591906,273.373 C366.03457,273.005665 365.578574,272.51167 365.223906,271.891 C364.869237,271.27033 364.691906,270.491338 364.691906,269.554 C364.691906,268.059326 365.090902,266.849671 365.888906,265.925 C366.68691,265.000329 367.719233,264.278336 368.985906,263.759 C370.252579,263.239664 371.664898,262.891334 373.222906,262.714 C374.780914,262.536666 376.307232,262.448 377.801906,262.448 Z M376.851906,265.64 C375.990568,265.64 375.097577,265.671666 374.172906,265.735 C373.248235,265.798334 372.399576,265.943999 371.626906,266.172 C370.854235,266.400001 370.220908,266.722998 369.726906,267.141 C369.232903,267.559002 368.985906,268.122663 368.985906,268.832 C368.985906,269.262669 369.068238,269.623665 369.232906,269.915 C369.397573,270.206335 369.619238,270.440666 369.897906,270.618 C370.176574,270.795334 370.493237,270.922 370.847906,270.998 C371.202574,271.074 371.569904,271.112 371.949906,271.112 C372.633909,271.112 373.27357,270.998001 373.868906,270.77 C374.464242,270.541999 374.98357,270.231669 375.426906,269.839 C375.870241,269.446331 376.237571,268.990336 376.528906,268.471 C376.820241,267.951664 377.029239,267.388003 377.155906,266.78 L377.383906,265.64 L376.851906,265.64 Z M386.847715,259.674 C386.949049,259.192664 387.056715,258.572004 387.170715,257.812 C387.284716,257.051996 387.367049,256.368003 387.417715,255.76 L391.597715,255.76 C391.572382,256.038668 391.521716,256.481997 391.445715,257.09 L391.255715,258.61 L391.331715,258.61 C391.889052,257.748662 392.617378,256.976003 393.516715,256.292 C394.416053,255.607997 395.562375,255.266 396.955715,255.266 C398.475723,255.266 399.698044,255.601663 400.622715,256.273 C401.547387,256.944337 402.149047,257.799328 402.427715,258.838 C403.213053,257.723328 404.13771,256.849336 405.201715,256.216 C406.265721,255.582663 407.494375,255.266 408.887715,255.266 C409.951721,255.266 410.863712,255.417998 411.623715,255.722 C412.383719,256.026002 413.017046,256.431331 413.523715,256.938 C414.030385,257.444669 414.404048,258.04633 414.644715,258.743 C414.885383,259.43967 415.005715,260.167996 415.005715,260.928 C415.005715,261.561336 414.955049,262.131331 414.853715,262.638 L412.839715,274 L408.393715,274 L410.141715,263.968 C410.192382,263.663998 410.236715,263.360002 410.274715,263.056 C410.312716,262.751998 410.331715,262.448002 410.331715,262.144 C410.331715,261.738665 410.281049,261.346002 410.179715,260.966 C410.078382,260.585998 409.913717,260.256668 409.685715,259.978 C409.457714,259.699332 409.147384,259.471334 408.754715,259.294 C408.362047,259.116666 407.874385,259.028 407.291715,259.028 C406.582379,259.028 405.949052,259.179998 405.391715,259.484 C404.834379,259.788002 404.346718,260.180664 403.928715,260.662 C403.510713,261.143336 403.17505,261.681664 402.921715,262.277 C402.668381,262.872336 402.491049,263.46133 402.389715,264.044 L400.641715,274 L396.157715,274 L398.095715,262.98 C398.171716,262.599998 398.209715,262.258002 398.209715,261.954 C398.209715,261.092662 397.981718,260.389669 397.525715,259.845 C397.069713,259.300331 396.360387,259.028 395.397715,259.028 C394.713712,259.028 394.099385,259.173665 393.554715,259.465 C393.010046,259.756335 392.535051,260.129998 392.129715,260.586 C391.72438,261.042002 391.388717,261.567664 391.122715,262.163 C390.856714,262.758336 390.673049,263.359997 390.571715,263.968 L388.785715,274 L384.339715,274 L386.847715,259.674 Z" id="IntelliStream"></path>
        </g>
    </g>
</svg>