<?xml version="1.0" encoding="UTF-8"?>
<svg width="19px" height="22px" viewBox="0 0 19 22" version="1.1" xmlns="http://www.w3.org/2000/svg" xmlns:xlink="http://www.w3.org/1999/xlink">
    <!-- Generator: Sketch 48.1 (47250) - http://www.bohemiancoding.com/sketch -->
    <title>Mask</title>
    <desc>Created with Sketch.</desc>
    <defs>
        <path d="M23.5,17 L21,17 L21,12.5 C21,12.2 20.8,12 20.5,12 L15,12 L15,7.9 C16.7,7.7 18,6.2 18,4.5 C18,2.6 16.4,1 14.5,1 C12.6,1 11,2.6 11,4.5 C11,6.3 12.3,7.7 14,7.9 L14,12 L8.5,12 C8.2,12 8,12.2 8,12.5 L8,17 L5.5,17 C5.2,17 5,17.2 5,17.5 L5,22.5 C5,22.8 5.2,23 5.5,23 L11.5,23 C11.8,23 12,22.8 12,22.5 L12,17.5 C12,17.2 11.8,17 11.5,17 L9,17 L9,13 L20,13 L20,17 L17.5,17 C17.2,17 17,17.2 17,17.5 L17,22.5 C17,22.8 17.2,23 17.5,23 L23.5,23 C23.8,23 24,22.8 24,22.5 L24,17.5 C24,17.2 23.8,17 23.5,17 Z M12,4.5 C12,3.1 13.1,2 14.5,2 C15.9,2 17,3.1 17,4.5 C17,5.9 15.9,7 14.5,7 C13.1,7 12,5.9 12,4.5 Z M11,18 L11,22 L6,22 L6,18 L11,18 Z M23,22 L18,22 L18,18 L23,18 L23,22 Z" id="path-1"></path>
    </defs>
    <g id="Icons/22/px-nav:hierarchy" stroke="none" stroke-width="1" fill="none" fill-rule="evenodd" transform="translate(-5.000000, -1.000000)">
        <g id="px-nav:hierarchy">
            <mask id="mask-2" fill="white">
                <use xlink:href="#path-1"></use>
            </mask>
            <use id="Mask" fill="#4C6472" fill-rule="nonzero" xlink:href="#path-1"></use>
        </g>
    </g>
</svg>