<?xml version="1.0" encoding="UTF-8"?>
<svg width="193px" height="72px" viewBox="0 0 193 72" version="1.1" xmlns="http://www.w3.org/2000/svg" xmlns:xlink="http://www.w3.org/1999/xlink">
    <!-- Generator: Sketch 48.1 (47250) - http://www.bohemiancoding.com/sketch -->
    <title>appDrawer-dashboards</title>
    <desc>Created with Sketch.</desc>
    <defs></defs>
    <g id="Page-1" stroke="none" stroke-width="1" fill="none" fill-rule="evenodd">
        <g id="appDrawer-dashboards">
            <rect id="Rectangle-10" fill="#06414E" fill-rule="nonzero" x="0.196536" y="0" width="94" height="72"></rect>
            <path d="M10.646536,59 L10.186536,59 C10.056536,59 10.006536,58.95 10.006536,58.82 L10.006536,52.56 C10.006536,52.43 10.056536,52.38 10.186536,52.38 L12.026536,52.38 C13.716536,52.38 14.356536,53.38 14.356536,54.46 C14.356536,55.57 13.666536,56.57 12.036536,56.57 L10.826536,56.57 L10.826536,58.82 C10.826536,58.95 10.776536,59 10.646536,59 Z M10.826536,53.06 L10.826536,55.89 L11.986536,55.89 C13.156536,55.89 13.516536,55.25 13.516536,54.48 C13.516536,53.71 13.136536,53.06 11.986536,53.06 L10.826536,53.06 Z M16.016536,59 L15.596536,59 C15.466536,59 15.416536,58.95 15.416536,58.82 L15.416536,54.38 C15.416536,54.25 15.466536,54.2 15.596536,54.2 L15.966536,54.2 C16.096536,54.2 16.146536,54.25 16.146536,54.38 L16.146536,54.83 C16.416536,54.48 16.806536,54.1 17.506536,54.1 C17.636536,54.1 17.786536,54.11 17.926536,54.15 C18.036536,54.18 18.086536,54.26 18.056536,54.37 L17.976536,54.74 C17.946536,54.87 17.896536,54.9 17.766536,54.87 C17.626536,54.83 17.486536,54.81 17.346536,54.81 C16.966536,54.81 16.506536,54.96 16.196536,55.39 L16.196536,58.82 C16.196536,58.95 16.146536,59 16.016536,59 Z M19.246536,56.6 C19.246536,57.59 19.646536,58.48 20.646536,58.48 C21.646536,58.48 22.046536,57.59 22.046536,56.6 C22.046536,55.61 21.646536,54.72 20.646536,54.72 C19.646536,54.72 19.246536,55.61 19.246536,56.6 Z M22.856536,56.6 C22.856536,57.89 22.186536,59.1 20.646536,59.1 C19.076536,59.1 18.436536,57.89 18.436536,56.6 C18.436536,55.31 19.106536,54.1 20.646536,54.1 C22.216536,54.1 22.856536,55.31 22.856536,56.6 Z M27.686536,59 L27.316536,59 C27.186536,59 27.136536,58.95 27.136536,58.82 L27.136536,58.42 C26.886536,58.8 26.456536,59.1 25.746536,59.1 C24.496536,59.1 23.736536,58.18 23.736536,56.61 C23.736536,55.05 24.496536,54.1 25.746536,54.1 C26.436536,54.1 26.856536,54.38 27.086536,54.71 L27.086536,52 C27.086536,51.87 27.136536,51.82 27.266536,51.82 L27.686536,51.82 C27.816536,51.82 27.866536,51.87 27.866536,52 L27.866536,58.82 C27.866536,58.95 27.816536,59 27.686536,59 Z M24.546536,56.6 C24.546536,57.85 25.086536,58.47 25.896536,58.47 C26.356536,58.47 26.786536,58.28 27.086536,57.81 L27.086536,55.39 C26.786536,54.92 26.356536,54.73 25.896536,54.73 C25.086536,54.73 24.546536,55.35 24.546536,56.6 Z M32.466536,58.42 C32.196536,58.76 31.766536,59.1 31.016536,59.1 C29.846536,59.1 29.386536,58.26 29.386536,57.28 L29.386536,54.38 C29.386536,54.25 29.436536,54.2 29.566536,54.2 L29.986536,54.2 C30.116536,54.2 30.166536,54.25 30.166536,54.38 L30.166536,57.21 C30.166536,57.77 30.366536,58.45 31.176536,58.45 C31.586536,58.45 32.076536,58.29 32.416536,57.81 L32.416536,54.38 C32.416536,54.25 32.466536,54.2 32.596536,54.2 L33.016536,54.2 C33.146536,54.2 33.196536,54.25 33.196536,54.38 L33.196536,58.82 C33.196536,58.95 33.146536,59 33.016536,59 L32.646536,59 C32.516536,59 32.466536,58.95 32.466536,58.82 L32.466536,58.42 Z M37.976536,58.64 C37.586536,58.96 37.076536,59.1 36.546536,59.1 C35.016536,59.1 34.406536,57.89 34.406536,56.63 C34.406536,55.37 35.026536,54.1 36.616536,54.1 C37.106536,54.1 37.596536,54.22 37.976536,54.52 C38.066536,54.6 38.076536,54.68 38.016536,54.78 L37.836536,55.05 C37.766536,55.16 37.706536,55.17 37.606536,55.09 C37.326536,54.86 36.976536,54.76 36.606536,54.76 C35.596536,54.76 35.216536,55.6 35.216536,56.61 C35.216536,57.61 35.586536,58.44 36.566536,58.44 C36.906536,58.44 37.296536,58.34 37.606536,58.09 C37.706536,58.01 37.766536,58.02 37.846536,58.13 L38.016536,58.38 C38.076536,58.48 38.066536,58.57 37.976536,58.64 Z M39.456536,54.81 L38.816536,54.81 C38.686536,54.81 38.636536,54.76 38.636536,54.63 L38.636536,54.38 C38.636536,54.25 38.686536,54.2 38.816536,54.2 L39.456536,54.2 L39.456536,53.09 C39.456536,52.96 39.506536,52.91 39.636536,52.91 L40.056536,52.91 C40.186536,52.91 40.236536,52.96 40.236536,53.09 L40.236536,54.2 L41.596536,54.2 C41.726536,54.2 41.776536,54.25 41.776536,54.38 L41.776536,54.63 C41.776536,54.76 41.726536,54.81 41.596536,54.81 L40.236536,54.81 L40.236536,57.63 C40.236536,58.16 40.396536,58.45 40.866536,58.45 C41.086536,58.45 41.266536,58.39 41.436536,58.29 C41.546536,58.23 41.606536,58.25 41.656536,58.36 L41.766536,58.62 C41.816536,58.74 41.786536,58.82 41.686536,58.88 C41.406536,59.04 41.096536,59.1 40.766536,59.1 C39.926536,59.1 39.456536,58.72 39.456536,57.66 L39.456536,54.81 Z M43.406536,59 L42.986536,59 C42.856536,59 42.806536,58.95 42.806536,58.82 L42.806536,54.38 C42.806536,54.25 42.856536,54.2 42.986536,54.2 L43.406536,54.2 C43.536536,54.2 43.586536,54.25 43.586536,54.38 L43.586536,58.82 C43.586536,58.95 43.536536,59 43.406536,59 Z M43.726536,52.47 C43.726536,52.77 43.526536,53.01 43.196536,53.01 C42.866536,53.01 42.666536,52.77 42.666536,52.47 C42.666536,52.17 42.866536,51.93 43.196536,51.93 C43.526536,51.93 43.726536,52.17 43.726536,52.47 Z M45.606536,56.6 C45.606536,57.59 46.006536,58.48 47.006536,58.48 C48.006536,58.48 48.406536,57.59 48.406536,56.6 C48.406536,55.61 48.006536,54.72 47.006536,54.72 C46.006536,54.72 45.606536,55.61 45.606536,56.6 Z M49.216536,56.6 C49.216536,57.89 48.546536,59.1 47.006536,59.1 C45.436536,59.1 44.796536,57.89 44.796536,56.6 C44.796536,55.31 45.466536,54.1 47.006536,54.1 C48.576536,54.1 49.216536,55.31 49.216536,56.6 Z M51.026536,59 L50.606536,59 C50.476536,59 50.426536,58.95 50.426536,58.82 L50.426536,54.38 C50.426536,54.25 50.476536,54.2 50.606536,54.2 L50.976536,54.2 C51.106536,54.2 51.156536,54.25 51.156536,54.38 L51.156536,54.78 C51.426536,54.44 51.876536,54.1 52.636536,54.1 C53.826536,54.1 54.296536,54.94 54.296536,55.92 L54.296536,58.82 C54.296536,58.95 54.246536,59 54.116536,59 L53.696536,59 C53.566536,59 53.516536,58.95 53.516536,58.82 L53.516536,55.99 C53.516536,55.43 53.326536,54.75 52.476536,54.75 C52.056536,54.75 51.556536,54.91 51.206536,55.39 L51.206536,58.82 C51.206536,58.95 51.156536,59 51.026536,59 Z M60.006536,59 L58.186536,59 C58.056536,59 58.006536,58.95 58.006536,58.82 L58.006536,52.56 C58.006536,52.43 58.056536,52.38 58.186536,52.38 L60.006536,52.38 C62.316536,52.38 63.186536,54.01 63.186536,55.69 C63.186536,57.37 62.316536,59 60.006536,59 Z M59.966536,53.06 L58.826536,53.06 L58.826536,58.32 L59.966536,58.32 C61.646536,58.32 62.346536,57.23 62.346536,55.69 C62.346536,54.15 61.646536,53.06 59.966536,53.06 Z M67.856536,59 L67.486536,59 C67.356536,59 67.306536,58.95 67.306536,58.82 L67.306536,58.39 C67.046536,58.73 66.616536,59.1 65.816536,59.1 C64.776536,59.1 64.216536,58.48 64.216536,57.65 C64.216536,56.81 64.806536,56.17 66.126536,56.17 C66.596536,56.17 66.996536,56.25 67.256536,56.36 L67.256536,55.96 C67.256536,55.37 67.076536,54.76 66.126536,54.76 C65.686536,54.76 65.216536,54.89 64.876536,55.16 C64.766536,55.24 64.706536,55.23 64.626536,55.12 L64.466536,54.89 C64.406536,54.79 64.416536,54.7 64.506536,54.63 C64.916536,54.29 65.526536,54.1 66.196536,54.1 C67.496536,54.1 68.036536,54.81 68.036536,55.84 L68.036536,58.82 C68.036536,58.95 67.986536,59 67.856536,59 Z M65.946536,58.47 C66.446536,58.47 66.916536,58.27 67.256536,57.78 L67.256536,56.93 C66.996536,56.81 66.526536,56.77 66.226536,56.77 C65.326536,56.77 65.006536,57.13 65.006536,57.63 C65.006536,58.03 65.206536,58.47 65.946536,58.47 Z M72.806536,57.69 C72.806536,58.58 72.006536,59.1 70.976536,59.1 C70.216536,59.1 69.656536,58.86 69.326536,58.58 C69.236536,58.51 69.226536,58.42 69.296536,58.33 L69.486536,58.08 C69.566536,57.98 69.636536,57.97 69.736536,58.04 C70.066536,58.3 70.466536,58.46 70.986536,58.46 C71.556536,58.46 72.026536,58.22 72.026536,57.74 C72.026536,57.21 71.536536,57.06 70.936536,56.91 C70.256536,56.74 69.306536,56.58 69.306536,55.5 C69.306536,54.64 70.056536,54.1 71.126536,54.1 C71.786536,54.1 72.286536,54.27 72.606536,54.5 C72.706536,54.57 72.716536,54.65 72.656536,54.75 L72.476536,55.01 C72.406536,55.12 72.346536,55.13 72.236536,55.06 C71.956536,54.87 71.586536,54.74 71.116536,54.74 C70.436536,54.74 70.086536,55.06 70.086536,55.47 C70.086536,56.02 70.586536,56.11 71.166536,56.25 C71.926536,56.43 72.806536,56.68 72.806536,57.69 Z M74.616536,59 L74.196536,59 C74.066536,59 74.016536,58.95 74.016536,58.82 L74.016536,52 C74.016536,51.87 74.066536,51.82 74.196536,51.82 L74.616536,51.82 C74.746536,51.82 74.796536,51.87 74.796536,52 L74.796536,54.73 C75.076536,54.4 75.506536,54.1 76.216536,54.1 C77.416536,54.1 77.886536,54.95 77.886536,55.92 L77.886536,58.82 C77.886536,58.95 77.836536,59 77.706536,59 L77.286536,59 C77.156536,59 77.106536,58.95 77.106536,58.82 L77.106536,55.99 C77.106536,55.43 76.916536,54.75 76.066536,54.75 C75.646536,54.75 75.146536,54.91 74.796536,55.39 L74.796536,58.82 C74.796536,58.95 74.746536,59 74.616536,59 Z M80.216536,58.49 C80.216536,58.82 79.986536,59.08 79.636536,59.08 C79.286536,59.08 79.056536,58.82 79.056536,58.49 C79.056536,58.16 79.286536,57.9 79.636536,57.9 C79.986536,57.9 80.216536,58.16 80.216536,58.49 Z M82.096536,58.49 C82.096536,58.82 81.866536,59.08 81.516536,59.08 C81.166536,59.08 80.936536,58.82 80.936536,58.49 C80.936536,58.16 81.166536,57.9 81.516536,57.9 C81.866536,57.9 82.096536,58.16 82.096536,58.49 Z M83.976536,58.49 C83.976536,58.82 83.746536,59.08 83.396536,59.08 C83.046536,59.08 82.816536,58.82 82.816536,58.49 C82.816536,58.16 83.046536,57.9 83.396536,57.9 C83.746536,57.9 83.976536,58.16 83.976536,58.49 Z" id="Production-Dash…" fill="#FFFFFF" fill-rule="nonzero"></path>
            <rect id="Rectangle-11" stroke="#FFFFFF" x="37.696536" y="15.5" width="9" height="12"></rect>
            <rect id="Rectangle-11-Copy-3" stroke="#FFFFFF" x="37.696536" y="30.5" width="9" height="6"></rect>
            <rect id="Rectangle-11-Copy" stroke="#FFFFFF" x="49.696536" y="15.5" width="9" height="6"></rect>
            <rect id="Rectangle-11-Copy-2" stroke="#FFFFFF" x="49.696536" y="24.5" width="9" height="12"></rect>
            <rect id="Rectangle-10-Copy" fill="#06414E" fill-rule="nonzero" x="98.196536" y="0" width="94" height="72"></rect>
            <path d="M127.076536,59 L126.626536,59 C126.526536,59 126.476536,58.96 126.476536,58.9 C126.476536,58.86 126.486536,58.82 126.496536,58.79 C127.186536,56.46 127.916536,54.38 128.796536,52.54 C128.856536,52.42 128.926536,52.38 129.056536,52.38 L129.416536,52.38 C129.546536,52.38 129.616536,52.42 129.676536,52.54 C130.516536,54.32 131.326536,56.48 131.976536,58.75 C131.996536,58.82 132.006536,58.85 132.006536,58.88 C132.006536,58.96 131.956536,59 131.846536,59 L131.376536,59 C131.246536,59 131.176536,58.95 131.146536,58.83 C130.976536,58.22 130.826536,57.73 130.676536,57.2 L127.766536,57.2 C127.606536,57.73 127.466536,58.23 127.296536,58.85 C127.266536,58.97 127.206536,59 127.076536,59 Z M130.456536,56.54 C130.066536,55.33 129.646536,54.22 129.216536,53.24 C128.786536,54.22 128.376536,55.33 127.986536,56.54 L130.456536,56.54 Z M136.676536,59 L136.306536,59 C136.176536,59 136.126536,58.95 136.126536,58.82 L136.126536,58.42 C135.876536,58.8 135.446536,59.1 134.736536,59.1 C133.486536,59.1 132.726536,58.18 132.726536,56.61 C132.726536,55.05 133.486536,54.1 134.736536,54.1 C135.426536,54.1 135.846536,54.38 136.076536,54.71 L136.076536,52 C136.076536,51.87 136.126536,51.82 136.256536,51.82 L136.676536,51.82 C136.806536,51.82 136.856536,51.87 136.856536,52 L136.856536,58.82 C136.856536,58.95 136.806536,59 136.676536,59 Z M133.536536,56.6 C133.536536,57.85 134.076536,58.47 134.886536,58.47 C135.346536,58.47 135.776536,58.28 136.076536,57.81 L136.076536,55.39 C135.776536,54.92 135.346536,54.73 134.886536,54.73 C134.076536,54.73 133.536536,55.35 133.536536,56.6 Z M142.016536,59 L141.646536,59 C141.516536,59 141.466536,58.95 141.466536,58.82 L141.466536,58.42 C141.216536,58.8 140.786536,59.1 140.076536,59.1 C138.826536,59.1 138.066536,58.18 138.066536,56.61 C138.066536,55.05 138.826536,54.1 140.076536,54.1 C140.766536,54.1 141.186536,54.38 141.416536,54.71 L141.416536,52 C141.416536,51.87 141.466536,51.82 141.596536,51.82 L142.016536,51.82 C142.146536,51.82 142.196536,51.87 142.196536,52 L142.196536,58.82 C142.196536,58.95 142.146536,59 142.016536,59 Z M138.876536,56.6 C138.876536,57.85 139.416536,58.47 140.226536,58.47 C140.686536,58.47 141.116536,58.28 141.416536,57.81 L141.416536,55.39 C141.116536,54.92 140.686536,54.73 140.226536,54.73 C139.416536,54.73 138.876536,55.35 138.876536,56.6 Z M146.496536,59 L146.106536,59 C145.976536,59 145.926536,58.95 145.926536,58.82 L145.926536,52.56 C145.926536,52.43 145.976536,52.38 146.106536,52.38 L146.666536,52.38 C146.796536,52.38 146.876536,52.42 146.936536,52.53 L150.256536,57.96 L150.256536,52.56 C150.256536,52.43 150.306536,52.38 150.436536,52.38 L150.826536,52.38 C150.956536,52.38 151.006536,52.43 151.006536,52.56 L151.006536,58.82 C151.006536,58.95 150.956536,59 150.826536,59 L150.266536,59 C150.136536,59 150.056536,58.96 149.996536,58.85 L146.676536,53.42 L146.676536,58.82 C146.676536,58.95 146.626536,59 146.496536,59 Z M156.476536,56.54 L156.476536,56.71 C156.476536,56.81 156.426536,56.86 156.326536,56.86 L153.056536,56.86 C153.116536,57.74 153.536536,58.44 154.556536,58.44 C154.966536,58.44 155.386536,58.33 155.706536,58.1 C155.816536,58.02 155.876536,58.03 155.956536,58.14 L156.116536,58.38 C156.176536,58.48 156.166536,58.56 156.066536,58.64 C155.666536,58.96 155.126536,59.1 154.546536,59.1 C152.906536,59.1 152.256536,57.9 152.256536,56.61 C152.256536,55.28 152.946536,54.1 154.396536,54.1 C155.926536,54.1 156.476536,55.41 156.476536,56.54 Z M155.706536,56.28 C155.636536,55.43 155.236536,54.72 154.386536,54.72 C153.556536,54.72 153.136536,55.38 153.056536,56.28 L155.706536,56.28 Z M163.456536,54.2 L163.876536,54.2 C163.976536,54.2 164.026536,54.25 164.026536,54.33 C164.026536,54.37 164.016536,54.42 164.006536,54.47 C163.706536,55.99 163.136536,57.78 162.606536,58.84 C162.556536,58.94 162.476536,59 162.346536,59 L161.966536,59 C161.836536,59 161.766536,58.95 161.716536,58.84 C161.146536,57.51 160.786536,56.42 160.586536,55.38 C160.396536,56.42 160.026536,57.51 159.466536,58.83 C159.416536,58.95 159.346536,59 159.216536,59 L158.826536,59 C158.696536,59 158.616536,58.95 158.566536,58.84 C158.066536,57.76 157.466536,55.99 157.166536,54.47 C157.156536,54.42 157.146536,54.37 157.146536,54.33 C157.146536,54.25 157.196536,54.2 157.296536,54.2 L157.726536,54.2 C157.856536,54.2 157.916536,54.25 157.936536,54.38 C158.166536,55.68 158.626536,57.24 159.036536,58.22 C159.486536,57.24 159.976536,55.68 160.206536,54.38 C160.226536,54.25 160.286536,54.2 160.416536,54.2 L160.756536,54.2 C160.886536,54.2 160.946536,54.25 160.966536,54.38 C161.206536,55.68 161.696536,57.24 162.146536,58.22 C162.556536,57.24 163.016536,55.68 163.246536,54.38 C163.266536,54.25 163.326536,54.2 163.456536,54.2 Z" id="Add-New" fill="#FFFFFF" fill-rule="nonzero"></path>
            <rect id="Rectangle-13" fill="#FFFFFF" fill-rule="nonzero" x="140.196536" y="25" width="11" height="2"></rect>
            <rect id="Rectangle-13" fill="#FFFFFF" fill-rule="nonzero" transform="translate(145.696536, 26.000000) rotate(90.000000) translate(-145.696536, -26.000000) " x="140.196536" y="25" width="11" height="2"></rect>
        </g>
    </g>
</svg>