<?xml version="1.0" encoding="UTF-8"?>
<svg width="194px" height="17px" viewBox="0 0 194 17" version="1.1" xmlns="http://www.w3.org/2000/svg" xmlns:xlink="http://www.w3.org/1999/xlink">
    <!-- Generator: Sketch 49.1 (51147) - http://www.bohemiancoding.com/sketch -->
    <title>Path 4</title>
    <desc>Created with Sketch.</desc>
    <defs></defs>
    <g id="dash" stroke="none" stroke-width="1" fill="none" fill-rule="evenodd" stroke-linecap="round">
        <g id="dashboard-light-(data-table)" transform="translate(-449.000000, -141.000000)" stroke="#25D70A" stroke-width="1.2">
            <path d="M450,149.851064 L452.37037,156.106383 L454.266667,152.234043 L455.688889,154.319149 L458.059259,147.765957 L459.955556,154.319149 C460.903704,151.539007 461.535802,150.248227 461.851852,150.446809 C462.325926,150.744681 464.696296,154.914894 465.17037,154.319149 C465.48642,153.921986 466.118519,152.631206 467.066667,150.446809 L469.437037,153.425532 C471.333333,151.638298 472.281481,150.943262 472.281481,151.340426 C472.281481,151.737589 472.91358,153.12766 474.177778,155.510638 L476.074074,153.425532 L477.97037,155.510638 L479.866667,154.319149 L481.288889,155.510638 L484.133333,151.340426 L486.02963,153.425532 L489.822222,143.893617 L492.192593,146.87234 L494.088889,144.489362 L495.037037,147.765957 L499.303704,143 L501.674074,148.957447 L504.518519,153.425532 L507.362963,154.319149 L508.311111,151.340426 L511.155556,150.446809 L514,148.361702 L516.37037,152.234043 L517.318519,148.957447 L520.637037,156.106383 L523.481481,151.340426 L524.903704,154.319149 L529.644444,145.382979 L531.540741,147.765957 L533.911111,144.489362 L535.807407,147.765957 L539.6,144.489362 L541.496296,149.851064 L549.555556,144.489362 C550.503704,145.879433 551.135802,146.971631 551.451852,147.765957 C551.925926,148.957447 556.666667,150.446809 557.614815,151.340426 C558.246914,151.93617 559.985185,151.93617 562.82963,151.340426 C564.093827,148.361702 564.883951,146.87234 565.2,146.87234 C565.516049,146.87234 566.780247,147.865248 568.992593,149.851064 L571.837037,152.234043 C574.681481,149.851064 577.525926,148.361702 580.37037,147.765957 C584.637037,146.87234 586.533333,149.255319 587.481481,149.851064 C588.11358,150.248227 591.590123,152.631206 597.911111,157 L604.548148,150.446809 L606.444444,153.425532 L609.288889,150 C608.97284,152.283688 609.604938,153.22695 611.185185,152.829787 C612.765432,152.432624 614.819753,150.248227 617.348148,146.276596 L619.244444,148.957447 L623.511111,150.446809 C626.355556,150.049645 628.093827,149.851064 628.725926,149.851064 C629.674074,149.851064 632.992593,152.829787 633.940741,152.829787 C634.888889,152.829787 637.259259,150 638.207407,150 C638.839506,150 640.103704,150.744681 642,152.234043" id="Path-4" transform="translate(546.000000, 150.000000) scale(-1, 1) translate(-546.000000, -150.000000) "></path>
        </g>
    </g>
</svg>