<?xml version="1.0" encoding="UTF-8"?>
<svg width="135px" height="50px" viewBox="0 0 135 50" version="1.1" xmlns="http://www.w3.org/2000/svg" xmlns:xlink="http://www.w3.org/1999/xlink">
    <!-- Generator: Sketch 48.1 (47250) - http://www.bohemiancoding.com/sketch -->
    <title>Shape</title>
    <desc>Created with Sketch.</desc>
    <defs></defs>
    <g id="app-header" stroke="none" stroke-width="1" fill="none" fill-rule="evenodd" transform="translate(-30.000000, -10.000000)">
        <g fill="#FFFFFF" fill-rule="nonzero" id="branding">
            <g transform="translate(30.000000, 10.000000)">
                <g id="bhge-logo">
                    <path d="M53.1276252,37.3645161 C48.5476575,37.3645161 45.4071082,34.0861391 45.4071082,29.5952117 L45.4071082,29.5503024 C45.4071082,25.2839214 48.634895,21.7360887 53.0840065,21.7360887 C55.7883683,21.7360887 57.5331179,22.5444556 59.1470113,24.1162802 L56.7479806,26.361744 C56.0936995,25.8228327 55.0904685,24.8797379 52.996769,24.8797379 C50.641357,24.8797379 48.8529887,26.9455645 48.8529887,29.5053931 L48.8529887,29.5503024 C48.8529887,32.2897681 50.641357,34.2208669 53.2148627,34.2208669 C54.3925687,34.2208669 55.4394184,33.9963206 56.2681745,33.4125 L56.2681745,31.2568548 L53.0403877,31.2568548 L53.0403877,28.3826613 L59.4087237,28.3826613 L59.4087237,34.9394153 C57.8820679,36.2866935 55.7883683,37.3645161 53.1276252,37.3645161 Z M135,12.7093246 C135,5.70347782 129.46042,0 122.655897,0 C115.851373,0 110.311793,5.70347782 110.311793,12.7093246 C110.311793,19.7151714 115.851373,25.4186492 122.655897,25.4186492 C129.46042,25.4186492 135,19.7600806 135,12.7093246 Z M134.389338,12.7093246 C134.389338,19.4008065 129.155089,24.7899194 122.655897,24.7899194 C116.156704,24.7899194 110.922456,19.4008065 110.922456,12.7093246 C110.922456,6.01784274 116.200323,0.628729839 122.655897,0.628729839 C129.155089,0.628729839 134.389338,6.06275202 134.389338,12.7093246 Z M133.647819,12.7093246 C133.647819,8.71239919 131.684976,4.53583669 127.410339,3.23346774 C126.537964,2.9640121 125.796446,2.784375 124.924071,2.784375 C122.961228,2.784375 122.87399,3.95201613 121.957997,3.95201613 C121.434572,3.95201613 121.085622,3.59274194 121.085622,3.09873992 C121.085622,2.29037298 122.001616,1.66164315 123.484653,1.66164315 C124.836834,1.66164315 125.927302,2.02091734 126.101777,2.11073589 L126.145396,2.02091734 C125.796446,1.88618952 124.487884,1.43709677 122.655897,1.43709677 C118.73021,1.43709677 114.717286,3.50292339 113.452342,7.85912298 C113.19063,8.75730847 113.016155,9.5656754 113.016155,10.4189516 C113.016155,12.4847782 114.150242,12.5745968 114.150242,13.5176915 C114.150242,14.0116935 113.801292,14.3709677 113.321486,14.3709677 C112.536349,14.3709677 111.925687,13.427873 111.925687,11.9009577 C111.925687,10.5087702 112.274637,9.38603831 112.318255,9.20640121 L112.231018,9.16149194 C112.14378,9.5656754 111.663974,10.8680444 111.663974,12.7542339 C111.663974,16.8409778 113.670436,20.9277218 117.901454,22.275 C118.773829,22.5444556 119.558966,22.7240927 120.387722,22.7240927 C122.394184,22.7240927 122.437803,21.5115423 123.353796,21.5115423 C123.833603,21.5115423 124.226171,21.9157258 124.226171,22.4097278 C124.226171,23.1731855 123.310178,23.8019153 121.827141,23.8019153 C120.47496,23.8019153 119.384491,23.4426411 119.210016,23.3977319 L119.166397,23.4875504 C119.558966,23.6671875 120.82391,24.0264617 122.655897,24.0264617 C126.581583,24.0264617 130.594507,21.9606351 131.859451,17.6044355 C132.121163,16.70625 132.295638,15.9427923 132.295638,15.0895161 C132.295638,13.0236895 131.161551,12.933871 131.161551,11.9907762 C131.161551,11.4518649 131.510501,11.0925907 131.990307,11.0925907 C132.775444,11.0925907 133.386107,12.0356855 133.386107,13.6075101 C133.386107,14.9996976 133.037157,16.0775202 132.993538,16.3020665 L133.080775,16.3469758 C133.25525,15.8978831 133.647819,14.5955141 133.647819,12.7093246 Z M129.504039,16.0775202 C129.504039,17.6493448 128.195477,19.3109879 126.232633,19.3109879 C123.877221,19.3109879 122.699515,17.2451613 122.699515,15.4487903 C122.699515,12.8889617 124.400646,11.8111391 125.142165,11.4069556 C125.011309,11.3171371 124.880452,11.1824093 124.793215,11.0027722 C123.964459,11.5865927 123.22294,12.125504 121.652666,13.0685988 C121.565428,14.1913306 121.478191,15.403881 121.216478,16.2571573 C120.649435,18.0535282 119.42811,19.3558972 117.857835,19.3558972 C116.549273,19.3558972 115.894992,18.3678931 115.894992,17.2900706 C115.894992,16.5266129 116.331179,15.5386089 117.116317,14.7751512 C118.119548,13.8769657 119.210016,13.2931452 120.693053,12.4847782 C120.736672,12.2602319 120.780291,12.0805948 120.780291,11.8111391 C120.387722,12.1704133 119.864297,12.3051411 119.42811,12.3051411 C118.73021,12.3051411 118.119548,11.6764113 117.988691,11.0027722 C117.029079,10.9129536 116.331179,10.2393145 116.287561,9.11658266 C116.287561,8.30821573 116.592892,7.58966734 117.116317,7.58966734 C117.33441,7.58966734 117.378029,7.76930444 117.378029,7.90403226 C117.378029,8.03876008 117.203554,8.48785282 117.203554,8.93694556 C117.203554,9.38603831 117.421648,10.0147681 117.945073,10.0147681 C117.945073,8.1734879 119.253635,5.83820565 120.780291,5.83820565 C121.783522,5.83820565 121.957997,6.60166331 121.957997,6.9609375 C121.957997,8.62258065 120.344103,10.4638609 119.035541,10.9129536 C119.07916,11.0476815 119.210016,11.4518649 119.602585,11.4518649 C120.12601,11.4518649 120.736672,10.9578629 121.042003,10.5536794 C121.172859,9.83513105 121.696284,8.75730847 122.394184,8.75730847 C122.655897,8.75730847 122.786753,8.98185484 122.786753,9.20640121 C122.786753,9.7453125 122.263328,10.4189516 121.827141,10.8680444 C121.783522,11.2273185 121.739903,11.631502 121.739903,11.9458669 C122.917609,11.1824093 123.528271,10.8231351 124.444265,10.149496 C124.357027,9.9249496 124.357027,9.61058468 124.357027,9.34112903 C124.357027,7.67948589 125.403877,5.83820565 126.799677,5.83820565 C127.584814,5.83820565 127.977383,6.42202621 127.977383,7.05075605 C127.977383,8.26330645 126.974152,9.29621976 125.578352,10.3740423 C125.66559,10.643498 125.840065,10.9129536 126.101777,11.0476815 C126.145396,10.9578629 126.581583,10.9129536 126.974152,10.9129536 C127.366721,10.9129536 127.977383,11.0027722 127.977383,11.4518649 C127.977383,11.9458669 127.323102,12.0356855 126.799677,12.0356855 C126.537964,12.0805948 126.058158,11.9458669 126.058158,11.9458669 C125.31664,12.1704133 123.877221,13.0236895 123.877221,15.2691532 C123.877221,16.7960685 124.793215,18.188256 126.232633,18.188256 C127.323102,18.188256 128.195477,17.3349798 128.239095,16.0326109 C128.239095,15.1793347 127.890145,14.3260585 127.061389,14.3260585 C126.668821,14.3260585 126.276252,14.6404234 126.276252,15.0895161 C126.232633,15.8080645 126.756058,15.8529738 126.756058,16.3020665 C126.756058,16.6164315 126.537964,16.7511593 126.276252,16.7511593 C125.578352,16.7511593 125.054927,16.0326109 125.054927,15.1793347 C125.054927,14.1015121 125.970921,13.2482359 127.105008,13.2482359 C128.76252,13.2931452 129.504039,14.6404234 129.504039,16.0775202 Z M127.017771,7.23039315 C127.017771,7.05075605 126.974152,6.82620968 126.756058,6.82620968 C126.232633,6.82620968 125.447496,7.94894153 125.447496,9.38603831 C126.450727,8.48785282 127.017771,7.72439516 127.017771,7.23039315 Z M120.954766,7.09566532 C120.954766,6.91602823 120.867528,6.87111895 120.736672,6.87111895 C119.995153,6.87111895 118.991922,8.80221774 118.991922,9.96985887 C120.082391,9.29621976 120.954766,7.85912298 120.954766,7.09566532 Z M120.562197,13.6524194 C119.035541,14.415877 117.072698,15.8080645 117.072698,17.2900706 C117.072698,17.8289819 117.33441,18.188256 117.857835,18.188256 C119.340872,18.2331653 120.256866,15.7631552 120.562197,13.6524194 Z M37.2067851,41.765625 C36.4216478,41.765625 35.7673667,41.9901714 35.2875606,42.3943548 C35.2003231,42.4841734 35.1567044,42.5739919 35.2439418,42.7087198 L35.4184168,42.9781754 C35.5056543,43.1129032 35.5928918,43.1129032 35.723748,43.0230847 C36.1163166,42.7087198 36.6397415,42.5739919 37.1631664,42.5739919 C38.2536349,42.5739919 38.4717286,43.2925403 38.4717286,43.9661794 L38.4717286,44.4152722 C38.0355412,44.2356351 37.6429725,44.1907258 37.1631664,44.1907258 C35.6365105,44.1907258 34.9822294,44.9541835 34.9822294,45.9421875 C34.9822294,46.9301915 35.6365105,47.6487399 36.8142165,47.6487399 C37.5993538,47.6487399 38.1227787,47.334375 38.5153473,46.840373 L38.5153473,47.334375 C38.5153473,47.4691028 38.5589661,47.5589214 38.733441,47.5589214 L39.1696284,47.5589214 C39.3004847,47.5589214 39.3877221,47.5140121 39.3877221,47.334375 L39.3877221,43.8314516 C39.3004847,42.6189012 38.6898223,41.765625 37.2067851,41.765625 Z M38.4281099,46.0769153 C37.9919225,46.7056452 37.4684976,46.8852823 36.9450727,46.8852823 C36.1163166,46.8852823 35.8546042,46.346371 35.8546042,45.8972782 C35.8546042,45.3134577 36.2035541,44.9092742 37.2504039,44.9092742 C37.6865913,44.9092742 38.0791599,44.9541835 38.4281099,45.0889113 L38.4281099,46.0769153 Z M48.1114701,43.3823589 L45.7996769,43.3823589 C45.6688207,43.3823589 45.5815832,43.4272681 45.5815832,43.6069052 L45.5815832,43.9661794 C45.5815832,44.1009073 45.6252019,44.1907258 45.7996769,44.1907258 L47.3699515,44.1907258 L47.3699515,46.4361895 C46.8465267,46.7505544 46.1922456,46.840373 45.6252019,46.840373 C43.7932149,46.840373 43.095315,45.538004 43.095315,43.6967238 C43.095315,41.9452621 43.7932149,40.463256 45.4943457,40.463256 C46.279483,40.463256 46.9337641,40.777621 47.3699515,41.1368952 C47.5008078,41.2267137 47.5444265,41.2267137 47.631664,41.0919859 L47.8933764,40.7327117 C47.9806139,40.5979839 47.9806139,40.5081653 47.8497577,40.4183468 C47.2390953,39.8345262 46.3667205,39.5650706 45.4943457,39.5650706 C43.1389338,39.5650706 42.092084,41.4961694 42.092084,43.6518145 C42.092084,45.7625504 43.095315,47.6038306 45.5815832,47.6038306 C46.453958,47.6038306 47.3699515,47.3792843 48.0678514,46.9301915 C48.1987076,46.840373 48.2423263,46.7505544 48.2423263,46.6158266 L48.2423263,43.5170867 C48.2859451,43.4272681 48.2423263,43.3823589 48.1114701,43.3823589 Z M54,39.7447077 L49.9434572,39.7447077 C49.812601,39.7447077 49.7253635,39.7896169 49.7253635,39.969254 L49.7253635,47.334375 C49.7253635,47.4691028 49.7689822,47.5589214 49.9434572,47.5589214 L54,47.5589214 C54.1308562,47.5589214 54.2180937,47.5140121 54.2180937,47.334375 L54.2180937,46.9751008 C54.2180937,46.840373 54.174475,46.7505544 54,46.7505544 L50.6849758,46.7505544 L50.6849758,43.9212702 L53.6074313,43.9212702 C53.7382876,43.9212702 53.825525,43.8763609 53.825525,43.6967238 L53.825525,43.3374496 C53.825525,43.2027218 53.7819063,43.1129032 53.6074313,43.1129032 L50.6849758,43.1129032 L50.6849758,40.5979839 L54,40.5979839 C54.1308562,40.5979839 54.2180937,40.5530746 54.2180937,40.3734375 L54.2180937,40.0141633 C54.174475,39.7896169 54.1308562,39.7447077 54,39.7447077 Z M59.1470113,42.5290827 C59.5831987,42.5290827 59.9321486,42.6638105 60.2374798,42.8883569 C60.4119548,43.0230847 60.4555735,42.9781754 60.542811,42.8434476 L60.7609047,42.5290827 C60.8481422,42.3943548 60.8481422,42.3045363 60.7172859,42.2147177 C60.2810985,41.9003528 59.8885299,41.7207157 59.1470113,41.7207157 C57.4894992,41.7207157 56.6171244,43.1129032 56.6171244,44.6847278 C56.6171244,46.3912802 57.4458805,47.6038306 59.0597738,47.6038306 C59.6704362,47.6038306 60.2374798,47.4241935 60.6736672,47.0200101 C60.7609047,46.9301915 60.8045234,46.840373 60.7172859,46.7056452 L60.542811,46.4361895 C60.4555735,46.3014617 60.368336,46.3014617 60.2810985,46.3912802 C59.9321486,46.6607359 59.53958,46.7954637 59.1470113,46.7954637 C58.0565428,46.7954637 57.5767367,45.9421875 57.5767367,44.6398185 C57.5767367,43.4721774 58.1001616,42.5290827 59.1470113,42.5290827 Z M63.8142165,41.765625 C62.0694669,41.765625 61.2843296,43.2027218 61.2843296,44.6847278 C61.2843296,46.2116431 62.0258481,47.6038306 63.8142165,47.6038306 C65.5589661,47.6038306 66.3441034,46.1667339 66.3441034,44.6847278 C66.3441034,43.2027218 65.6025848,41.765625 63.8142165,41.765625 Z M63.8142165,46.9301915 C62.6801292,46.9301915 62.2003231,45.8972782 62.2003231,44.7296371 C62.2003231,43.561996 62.6365105,42.5290827 63.8142165,42.5290827 C64.9919225,42.5290827 65.4281099,43.561996 65.4281099,44.7296371 C65.4281099,45.852369 64.9483037,46.9301915 63.8142165,46.9301915 Z M73.2358643,41.765625 C72.450727,41.765625 71.8836834,42.1248992 71.4038772,42.6638105 C71.1421648,42.1248992 70.6187399,41.765625 69.8772213,41.765625 C69.1793215,41.765625 68.6558966,42.0799899 68.2197092,42.5290827 L68.2197092,42.0799899 C68.2197092,41.9452621 68.1760905,41.8554435 68.0016155,41.8554435 L67.5654281,41.8554435 C67.4345719,41.8554435 67.3473344,41.9003528 67.3473344,42.0799899 L67.3473344,47.2894657 C67.3473344,47.4241935 67.3909532,47.5140121 67.5654281,47.5140121 L68.0452342,47.5140121 C68.1760905,47.5140121 68.2633279,47.4691028 68.2633279,47.2894657 L68.2633279,43.247631 C68.6995153,42.753629 69.1357027,42.5290827 69.6591276,42.5290827 C70.4878837,42.5290827 70.7932149,43.2027218 70.7932149,43.9661794 L70.7932149,47.334375 C70.7932149,47.4691028 70.8368336,47.5589214 71.0113086,47.5589214 L71.4911147,47.5589214 C71.6219709,47.5589214 71.7092084,47.5140121 71.7092084,47.334375 L71.7092084,43.2925403 C72.1453958,42.7985383 72.5379645,42.5739919 73.0613893,42.5739919 C73.8901454,42.5739919 74.1954766,43.247631 74.1954766,44.0110887 L74.1954766,47.3792843 C74.1954766,47.5140121 74.2390953,47.6038306 74.4135703,47.6038306 L74.8933764,47.6038306 C75.0242326,47.6038306 75.1114701,47.5589214 75.1114701,47.3792843 L75.1114701,43.9661794 C75.1114701,42.7087198 74.5444265,41.765625 73.2358643,41.765625 Z M78.9499192,41.765625 C78.1647819,41.765625 77.6849758,42.1248992 77.2924071,42.5290827 L77.2924071,42.0799899 C77.2924071,41.9452621 77.2487884,41.8554435 77.0743134,41.8554435 L76.638126,41.8554435 C76.5072698,41.8554435 76.4200323,41.9003528 76.4200323,42.0799899 L76.4200323,49.624748 C76.4200323,49.7594758 76.4636511,49.8492944 76.638126,49.8492944 L77.1179321,49.8492944 C77.2487884,49.8492944 77.3360258,49.8043851 77.3360258,49.624748 L77.3360258,46.9751008 C77.6849758,47.334375 78.1647819,47.6038306 78.8626817,47.6038306 C80.2148627,47.6038306 81.174475,46.4361895 81.174475,44.5949093 C81.174475,42.8434476 80.3457189,41.765625 78.9499192,41.765625 Z M78.7754443,46.8852823 C78.2084006,46.8852823 77.7722132,46.6158266 77.3796446,46.1667339 L77.3796446,43.2925403 C77.7722132,42.7985383 78.2520194,42.5290827 78.819063,42.5290827 C79.6914378,42.5290827 80.2584814,43.247631 80.2584814,44.6847278 C80.2584814,46.1667339 79.6042003,46.8852823 78.7754443,46.8852823 Z M84.184168,41.765625 C83.3990307,41.765625 82.7447496,41.9901714 82.2649435,42.3943548 C82.177706,42.4841734 82.1340872,42.5739919 82.2213247,42.7087198 L82.3957997,42.9781754 C82.4830372,43.1129032 82.5702746,43.1129032 82.7011309,43.0230847 C83.0936995,42.7087198 83.6171244,42.5739919 84.1405493,42.5739919 C85.2310178,42.5739919 85.4491115,43.2925403 85.4491115,43.9661794 L85.4491115,44.4152722 C85.0129241,44.2356351 84.6203554,44.1907258 84.1405493,44.1907258 C82.6138934,44.1907258 81.9596123,44.9541835 81.9596123,45.9421875 C81.9596123,46.9301915 82.6138934,47.6487399 83.7915994,47.6487399 C84.5767367,47.6487399 85.1001616,47.334375 85.4927302,46.840373 L85.4927302,47.334375 C85.4927302,47.4691028 85.5363489,47.5589214 85.7108239,47.5589214 L86.1470113,47.5589214 C86.2778675,47.5589214 86.365105,47.5140121 86.365105,47.334375 L86.365105,43.8314516 C86.2778675,42.6189012 85.6672052,41.765625 84.184168,41.765625 Z M85.4054927,46.0769153 C84.9693053,46.7056452 84.4458805,46.8852823 83.9224556,46.8852823 C83.0936995,46.8852823 82.8319871,46.346371 82.8319871,45.8972782 C82.8319871,45.3134577 83.180937,44.9092742 84.2277868,44.9092742 C84.6639742,44.9092742 85.0565428,44.9541835 85.4054927,45.0889113 L85.4054927,46.0769153 Z M90.2035541,41.765625 C89.4620355,41.765625 88.9386107,42.0799899 88.5024233,42.5739919 L88.5024233,42.1248992 C88.5024233,41.9901714 88.4588045,41.9003528 88.2843296,41.9003528 L87.8481422,41.9003528 C87.7172859,41.9003528 87.6300485,41.9452621 87.6300485,42.1248992 L87.6300485,47.334375 C87.6300485,47.4691028 87.6736672,47.5589214 87.8481422,47.5589214 L88.3279483,47.5589214 C88.4588045,47.5589214 88.546042,47.5140121 88.546042,47.334375 L88.546042,43.3374496 C89.0258481,42.7985383 89.4620355,42.5739919 89.9854604,42.5739919 C90.8142165,42.5739919 91.1631664,43.247631 91.1631664,44.0110887 L91.1631664,47.3792843 C91.1631664,47.5140121 91.2067851,47.6038306 91.3812601,47.6038306 L91.8610662,47.6038306 C91.9919225,47.6038306 92.0791599,47.5589214 92.0791599,47.3792843 L92.0791599,43.9661794 C92.0791599,42.7087198 91.5121163,41.765625 90.2035541,41.765625 Z M97.26979,41.9003528 L96.8336026,41.9003528 C96.6591276,41.9003528 96.6155089,41.9901714 96.6155089,42.0799899 C96.3101777,43.5170867 95.8739903,45.044002 95.1760905,46.5260081 C94.5218094,45.1338206 93.9983845,43.4721774 93.7366721,42.1248992 C93.6930533,41.9901714 93.6494346,41.9452621 93.5185784,41.9452621 L92.9951535,41.9452621 C92.8642973,41.9452621 92.8206785,41.9901714 92.8206785,42.0799899 C92.8206785,42.1248992 92.8642973,42.259627 92.8642973,42.3045363 C93.2568659,43.9661794 93.911147,45.852369 94.7399031,47.4691028 C94.1292407,48.4121976 93.6494346,48.7714718 93.082391,49.2205645 C92.9951535,49.2654738 92.9515347,49.3103831 92.9515347,49.4002016 C92.9515347,49.4451109 92.9951535,49.4900202 92.9951535,49.5349294 L93.2132472,49.8492944 C93.2568659,49.9391129 93.3004847,49.9391129 93.3877221,49.9391129 C93.4749596,49.9391129 93.5185784,49.8942036 93.5621971,49.8942036 C94.8271405,49.0409274 95.7867528,47.4241935 96.5282714,45.538004 C96.9208401,44.5050907 97.3134087,43.3823589 97.4878837,42.3045363 C97.5315024,42.1698085 97.5315024,42.1248992 97.5315024,42.0799899 C97.4442649,41.9003528 97.4006462,41.9003528 97.26979,41.9003528 Z M51.7754443,17.200252 L44.273021,17.200252 L44.273021,13.9667843 L50.0306947,13.9667843 L50.0306947,11.1375 L44.2294023,11.1375 L44.2294023,8.26330645 L51.3828756,8.26330645 L51.3828756,5.29929435 L40.8271405,5.29929435 L40.8271405,20.1642641 L51.7754443,20.1642641 L51.7754443,17.200252 Z M22.6817447,20.1642641 L26.3893376,20.1642641 L21.1987076,5.25438508 L17.3166397,5.25438508 L11.907916,20.1642641 L15.6155089,20.1642641 L16.5751212,16.6613407 L21.6785137,16.6613407 L22.6817447,20.1642641 Z M17.273021,14.0116935 C18.0145396,11.7213206 18.6252019,10.5985887 19.1486268,8.71239919 C19.6720517,10.5536794 20.1518578,11.5865927 20.9369952,14.0116935 L17.273021,14.0116935 Z M9.20355412,12.3051411 C10.8174475,11.7213206 11.6462036,10.5536794 11.6462036,9.02676411 C11.6462036,7.54475806 10.9919225,6.33220766 9.9450727,5.79329637 C9.20355412,5.43402218 8.06946688,5.25438508 6.36833603,5.25438508 L0,5.25438508 L0,20.1642641 L6.15024233,20.1642641 C8.24394184,20.1642641 9.46526656,19.984627 10.3812601,19.4008065 C11.4717286,18.6822581 12.1696284,17.4247984 12.1696284,15.9427923 C12.1696284,13.9667843 11.1663974,12.7093246 9.20355412,12.3051411 Z M3.44588045,8.12857863 L6.06300485,8.12857863 C7.80775444,8.12857863 8.2003231,8.71239919 8.2003231,9.61058468 C8.2003231,10.5985887 7.546042,11.0925907 6.10662359,11.0925907 L3.44588045,11.0925907 L3.44588045,8.12857863 Z M6.06300485,17.2451613 L3.44588045,17.2451613 L3.44588045,13.9667843 L6.19386107,13.9667843 C8.11308562,13.9667843 8.54927302,14.5955141 8.54927302,15.6284274 C8.54927302,16.6613407 7.93861066,17.2451613 6.06300485,17.2451613 Z M61.4588045,20.1642641 L65.4281099,20.1642641 L61.5896607,14.0116935 C63.5088853,13.4727823 64.8610662,12.2153226 64.8610662,9.79022177 C64.8610662,8.75730847 64.5993538,7.72439516 63.9450727,6.91602823 C63.2035541,5.97293347 61.8513732,5.29929435 59.5831987,5.29929435 L52.9531502,5.29929435 L52.9531502,20.1642641 L56.3990307,20.1642641 L56.3990307,13.9667843 L58.187399,13.9667843 L61.4588045,20.1642641 Z M56.4426494,11.0925907 L56.4426494,8.12857863 L59.1470113,8.12857863 C60.8917609,8.12857863 61.2843296,8.71239919 61.2843296,9.61058468 C61.2843296,10.5985887 60.6300485,11.0925907 59.19063,11.0925907 L56.4426494,11.0925907 Z M64.2067851,30.8077621 L69.7463651,30.8077621 L69.7463651,37.0052419 L73.1922456,37.0052419 L73.1922456,22.1402722 L69.7463651,22.1402722 L69.7463651,27.7090222 L64.2067851,27.7090222 L64.2067851,22.1402722 L60.7609047,22.1402722 L60.7609047,37.0501512 L64.2067851,37.0501512 L64.2067851,30.8077621 Z M27,27.7090222 L21.46042,27.7090222 L21.46042,22.1402722 L18.0145396,22.1402722 L18.0145396,37.0501512 L21.46042,37.0501512 L21.46042,30.8077621 L26.9563813,30.8077621 L26.9563813,47.5140121 L30.4458805,47.5140121 L30.4458805,5.25438508 L26.9563813,5.25438508 L26.9563813,27.7090222 L27,27.7090222 Z M39.9983845,20.1642641 L34.8513732,12.5296875 L39.9983845,5.25438508 L35.8546042,5.25438508 L30.4458805,12.5296875 L35.8546042,20.1642641 L39.9983845,20.1642641 Z M44.273021,30.5832157 L44.273021,22.0953629 L40.8271405,22.0953629 L40.8271405,30.7179435 C40.8271405,33.4125 39.8675283,34.2208669 38.1227787,34.2208669 C36.5961228,34.2208669 35.5056543,33.4574093 35.5056543,30.7179435 L35.5056543,22.0953629 L32.0597738,22.0953629 L32.0597738,30.4933972 C32.0597738,35.0292339 33.6736672,37.3196069 38.0355412,37.3196069 C42.3101777,37.3645161 44.273021,35.208871 44.273021,30.5832157 Z M85.7980614,34.0412298 L78.2956381,34.0412298 L78.2956381,30.8077621 L84.0533118,30.8077621 L84.0533118,27.9784778 L78.2520194,27.9784778 L78.2520194,25.1042843 L85.4054927,25.1042843 L85.4054927,22.1402722 L74.8061389,22.1402722 L74.8061389,37.0501512 L85.7980614,37.0501512 L85.7980614,34.0412298 Z M94.2164782,28.2030242 L92.1663974,27.4844758 C90.726979,26.9904738 90.4216478,26.541381 90.4216478,25.9126512 C90.4216478,25.2390121 91.0323102,24.7899194 91.904685,24.7899194 C93.2568659,24.7899194 94.3909532,25.2390121 95.6558966,26.8108367 L98.2294023,24.565373 C96.8772213,22.8588206 95.0016155,21.780998 92.4281099,21.780998 C89.2003231,21.780998 86.8449111,23.6222782 86.8449111,26.3168347 C86.8449111,28.5173891 87.9353796,29.7299395 90.1599354,30.5832157 L91.9919225,31.3017641 C93.9547658,32.0652218 94.5218094,32.3346774 94.5218094,33.0532258 C94.5218094,33.6819556 93.9983845,34.2657762 92.4281099,34.2657762 C91.2940226,34.2657762 89.7673667,33.6370464 88.7641357,32.1550403 L86.1033926,34.5352319 C87.5864297,36.3316028 90.0290792,37.3196069 92.3408724,37.3196069 C96.092084,37.3196069 98.1421648,35.2537802 98.1421648,32.5592238 C98.1857835,30.4035786 96.8772213,29.146119 94.2164782,28.2030242 Z" id="Shape"></path>
                </g>
            </g>
        </g>
    </g>
</svg>