<?xml version="1.0" encoding="UTF-8"?>
<svg width="22px" height="23px" viewBox="0 0 22 23" version="1.1" xmlns="http://www.w3.org/2000/svg" xmlns:xlink="http://www.w3.org/1999/xlink">
    <!-- Generator: Sketch 47.1 (45422) - http://www.bohemiancoding.com/sketch -->
    <title>apps-icon</title>
    <desc>Created with Sketch.</desc>
    <defs></defs>
    <g id="Symbols" stroke="none" stroke-width="1" fill="none" fill-rule="evenodd">
        <g id="app-header" transform="translate(-1167.000000, -23.000000)" stroke="#FFFFFF">
            <g id="apps-icon">
                <path d="M1167.5,29.288 L1172.5,29.288 L1172.5,24.288 L1167.5,24.288 L1167.5,29.288 Z M1175.5,29.288 L1180.5,29.288 L1180.5,24.288 L1175.5,24.288 L1175.5,29.288 Z M1183.5,29.288 L1188.5,29.288 L1188.5,24.288 L1183.5,24.288 L1183.5,29.288 Z M1167.5,37.288 L1172.5,37.288 L1172.5,32.288 L1167.5,32.288 L1167.5,37.288 Z M1175.5,37.288 L1180.5,37.288 L1180.5,32.288 L1175.5,32.288 L1175.5,37.288 Z M1183.5,37.288 L1188.5,37.288 L1188.5,32.288 L1183.5,32.288 L1183.5,37.288 Z M1167.5,45.288 L1172.5,45.288 L1172.5,40.288 L1167.5,40.288 L1167.5,45.288 Z M1175.5,45.288 L1180.5,45.288 L1180.5,40.288 L1175.5,40.288 L1175.5,45.288 Z M1183.5,45.288 L1188.5,45.288 L1188.5,40.288 L1183.5,40.288 L1183.5,45.288 Z"></path>
            </g>
        </g>
    </g>
</svg>