<svg xmlns="http://www.w3.org/2000/svg" viewBox="0 0 414 231.12"><defs><style>.cls-1{fill:#fff;}.cls-2,.cls-3{fill:none;stroke:#fff;stroke-miterlimit:10;}.cls-2{stroke-width:4px;}.cls-3{stroke-width:5px;}</style></defs><title>Asset 1</title><g id="Layer_2" data-name="Layer 2"><g id="Layer_1-2" data-name="Layer 1"><path class="cls-1" d="M128.74,230.12h9.2a6.42,6.42,0,0,0,5.72-3.51L217.11,82.32a6.13,6.13,0,0,1,10.94,0l73.56,144.5a6.05,6.05,0,0,0,5.39,3.3h10.55a6.43,6.43,0,0,0,5.72-9.36L232.42,43.81a6.14,6.14,0,0,1,1.92-7.88,19.62,19.62,0,0,0,8.55-17.64,19.74,19.74,0,0,0-39.43,1.4A19.61,19.61,0,0,0,212,35.85a6.25,6.25,0,0,1,2,8l-90.88,177A6.36,6.36,0,0,0,128.74,230.12Z"/><line class="cls-2" x1="182.48" y1="150.53" x2="251.58" y2="129.56"/><line class="cls-2" x1="182.48" y1="130.53" x2="251.58" y2="109.56"/><line class="cls-2" x1="262.45" y1="150.53" x2="193.35" y2="129.56"/><line class="cls-2" x1="262.45" y1="130.53" x2="193.35" y2="109.56"/><line class="cls-2" x1="161.5" y1="183.25" x2="266.38" y2="151.17"/><line class="cls-2" x1="283.66" y1="183.25" x2="178.78" y2="151.17"/><line class="cls-3" y1="228.62" x2="414" y2="228.62"/></g></g></svg>