<?xml version="1.0" encoding="UTF-8"?>
<svg width="279px" height="313px" viewBox="0 0 279 313" version="1.1" xmlns="http://www.w3.org/2000/svg" xmlns:xlink="http://www.w3.org/1999/xlink">
    <!-- Generator: Sketch 47 (45396) - http://www.bohemiancoding.com/sketch -->
    <title>donkey</title>
    <desc>Created with Sketch.</desc>
    <defs>
        <polygon id="path-1" points="199 93.6406404 244 89 244 115.1 199 110.45936"></polygon>
    </defs>
    <g id="Page-1" stroke="none" stroke-width="1" fill="none" fill-rule="evenodd">
        <g id="Desktop" transform="translate(-181.000000, -199.000000)">
            <g id="donkey" transform="translate(182.000000, 200.000000)">
                <g id="donkeyBase" transform="translate(71.000000, 68.000000)" stroke="#065769" stroke-width="5" stroke-linecap="square">
                    <path d="M149.573864,0.456896552 L75.4261364,158.543103" id="Line" transform="translate(112.500000, 79.500000) scale(1, -1) translate(-112.500000, -79.500000) "></path>
                    <path d="M74.5738636,1.45689655 L0.426136364,159.543103" id="Line"></path>
                </g>
                <g id="donkeyTop" transform="translate(25.000000, 0.000000)">
                    <path d="M12.5,33.5 L203.5,93.5" id="Line-4" stroke="#065769" stroke-width="5" stroke-linecap="square"></path>
                    <path d="M9.49396543,64.0390625 C8.26987304,48.2474243 9.32084195,33.8742853 12.6468722,20.9196455 C15.9729024,7.96500573 19.7572783,1.33814472 24,1.0390625" id="Line-5" stroke="#065769" stroke-width="10" stroke-linecap="square" transform="translate(16.500000, 32.539062) rotate(17.000000) translate(-16.500000, -32.539062) "></path>
                    <g id="Rectangle" transform="translate(221.500000, 102.050000) rotate(18.000000) translate(-221.500000, -102.050000) ">
                        <use fill="#065769" fill-rule="evenodd" xlink:href="#path-1"></use>
                        <path stroke="#065769" stroke-width="5" d="M201.5,95.8960855 L201.5,108.203915 L241.5,112.328928 L241.5,91.7710717 L201.5,95.8960855 Z"></path>
                    </g>
                </g>
                <g id="donkeyWeight" transform="translate(5.000000, 61.000000)">
                    <rect id="weight" fill="#065769" x="0" y="120" width="45" height="54"></rect>
                    <path d="M20,133.396396 L20,0" id="length" stroke="#065769" stroke-width="2" stroke-linecap="square" stroke-dasharray="2,10"></path>
                </g>
                <path d="M0.5,310.5 L276.963379,310.5" id="Line-6" stroke="#2E546D" stroke-width="2" stroke-linecap="round" stroke-linejoin="round" stroke-dasharray="1,1,1,1"></path>
            </g>
        </g>
    </g>
</svg>