<?xml version="1.0" encoding="UTF-8"?>
<svg width="194px" height="18px" viewBox="0 0 194 18" version="1.1" xmlns="http://www.w3.org/2000/svg" xmlns:xlink="http://www.w3.org/1999/xlink">
    <!-- Generator: Sketch 49.1 (51147) - http://www.bohemiancoding.com/sketch -->
    <title>Path 4 Copy</title>
    <desc>Created with Sketch.</desc>
    <defs></defs>
    <g id="dash" stroke="none" stroke-width="1" fill="none" fill-rule="evenodd" stroke-linecap="round">
        <g id="dashboard-light-(data-table)" transform="translate(-659.000000, -141.000000)" stroke="#00CCFF" stroke-width="1.2">
            <path d="M660,154.321633 L662.530527,157 L664.426823,153.131248 L665.849045,155.214422 L667.384766,152.238459 L670.115712,155.214422 C671.06386,152.436856 671.695959,151.147272 672.012008,151.34567 C672.486082,151.643266 674.856453,155.809615 675.330527,155.214422 C675.646576,154.817627 676.278675,153.528043 677.226823,151.34567 L679.597193,154.321633 C681.49349,152.536055 682.441638,151.841664 682.441638,152.238459 C682.441638,152.635254 683.073736,154.024037 684.337934,156.404807 L686.23423,154.321633 L688.130527,156.404807 L689.546875,152.238459 L691.449045,156.404807 L694.999023,145.964669 L696.189786,154.321633 L700.655273,153.131248 L701.369141,155.214422 L704.249045,153.72644 L704.213585,156.107211 L709.46386,156.621241 L711.83423,154.321633 L714.678675,154.321633 L717.523119,155.214422 L718.471267,152.238459 L721.315712,151.34567 L724.160156,149.262495 L726.530527,153.131248 L727.478675,149.857688 L730.797193,157 L733.641638,152.238459 L735.06386,145.964669 L738.329102,148.667303 L741.700897,143 L744.071267,155.214422 L746.044922,152.238459 L749.760156,153.131248 L751.656453,150.750477 L759.618164,152.238459 C760.631344,150.849676 761.295959,150.552079 761.612008,151.34567 C762.086082,152.536055 766.826823,151.34567 767.774971,152.238459 C768.40707,152.833651 770.145341,152.833651 772.989786,152.238459 C774.452681,151.643266 775.342154,151.34567 775.658203,151.34567 C775.974253,151.34567 777.139101,151.147272 779.152749,150.750477 L781.997193,153.131248 C784.428057,153.131248 787.065712,152.833651 789.910156,152.238459 C794.176823,151.34567 796.052828,153.131248 797.000977,153.72644 C797.633075,154.123235 801.055601,154.619229 807.268555,155.214422 L814.708304,151.34567 L816.604601,154.321633 L819.449045,150.899275 C819.132996,153.180847 819.765095,154.123235 821.345341,153.72644 C822.925588,153.329645 824.80429,153.329645 826.981445,153.72644 L830.65332,153.131248 L832.988281,156.107211 C836.965557,154.520031 839.270245,153.72644 839.902344,153.72644 C840.850492,153.72644 843.152749,153.72644 844.100897,153.72644 C845.049045,153.72644 847.074313,154.321633 848.022461,154.321633 C848.65456,154.321633 850.033791,153.924838 852.160156,153.131248" id="Path-4-Copy" transform="translate(756.080078, 150.000000) scale(-1, 1) translate(-756.080078, -150.000000) "></path>
        </g>
    </g>
</svg>