<?xml version="1.0" encoding="UTF-8"?>
<svg width="194px" height="20px" viewBox="0 0 194 20" version="1.1" xmlns="http://www.w3.org/2000/svg" xmlns:xlink="http://www.w3.org/1999/xlink">
    <!-- Generator: Sketch 49.1 (51147) - http://www.bohemiancoding.com/sketch -->
    <title>Path 4 Copy 2</title>
    <desc>Created with Sketch.</desc>
    <defs></defs>
    <g id="dash" stroke="none" stroke-width="1" fill="none" fill-rule="evenodd" stroke-linecap="round">
        <g id="dashboard-light-(data-table)" transform="translate(-869.000000, -140.000000)" stroke="#FF7900" stroke-width="1.2">
            <path d="M870,147.516129 L872.37037,157 L874.266667,151.129032 L875.688889,154.290323 L877.224609,149.774194 L879.955556,154.290323 C880.903704,150.075269 881.535802,148.11828 881.851852,148.419355 C882.325926,148.870968 884.696296,155.193548 885.17037,154.290323 C885.48642,153.688172 886.118519,151.731183 887.066667,148.419355 L889.437037,152.935484 C891.333333,150.225806 892.281481,149.172043 892.281481,149.774194 C892.281481,150.376344 892.91358,152.483871 894.177778,156.096774 L896.074074,152.935484 L897.97037,156.096774 L899.866667,154.290323 L901.288889,156.096774 L904.133333,149.774194 L906.02963,152.935484 L910.495117,151.129032 L912.192593,143 L914.088889,152.032258 L915.037037,144.354839 L919.303704,156.42522 L921.674074,146.16129 L924.518519,152.935484 L927.362963,154.290323 L928.311111,149.774194 L931.155556,148.419355 L934,145.258065 L936.37037,151.129032 L937.318519,146.16129 L940.637037,157 L943.481481,149.774194 L944.903704,154.290323 L949.644444,154.290323 L951.540741,144.354839 L953.911111,154.290323 L955.807407,144.354839 L959.6,151.129032 L961.496296,147.516129 L969.458008,149.774194 C970.471188,147.666667 971.135802,147.215054 971.451852,148.419355 C971.925926,150.225806 976.666667,148.419355 977.614815,149.774194 C978.246914,150.677419 979.985185,150.677419 982.82963,149.774194 C984.292525,148.870968 985.181997,148.419355 985.498047,148.419355 C985.814096,148.419355 986.978945,148.11828 988.992593,147.516129 L991.837037,151.129032 C994.681481,153.236559 997.525926,153.83871 1000.37037,152.935484 C1004.63704,151.580645 1006.53333,146.612903 1007.48148,147.516129 C1008.11358,148.11828 1011.59012,149.322581 1017.91111,151.129032 L1024.54815,148.419355 L1026.44444,152.935484 L1029.28889,147.741935 C1028.97284,151.204301 1029.60494,152.634409 1031.18519,152.032258 C1032.76543,151.430108 1034.64413,151.430108 1036.82129,152.032258 L1039.24444,146.16129 L1043.51111,148.419355 C1046.35556,147.817204 1048.09383,147.516129 1048.72593,147.516129 C1049.67407,147.516129 1052.99259,152.032258 1053.94074,152.032258 C1054.88889,152.032258 1056.91416,152.935484 1057.8623,152.935484 C1058.4944,152.935484 1059.87364,152.333333 1062,151.129032" id="Path-4-Copy-2" transform="translate(966.000000, 150.000000) scale(-1, 1) translate(-966.000000, -150.000000) "></path>
        </g>
    </g>
</svg>