<?xml version="1.0" encoding="UTF-8"?>
<svg width="26px" height="30px" viewBox="0 0 26 30" version="1.1" xmlns="http://www.w3.org/2000/svg" xmlns:xlink="http://www.w3.org/1999/xlink">
    <!-- Generator: Sketch 48.1 (47250) - http://www.bohemiancoding.com/sketch -->
    <title>Mask</title>
    <desc>Created with Sketch.</desc>
    <defs>
        <path d="M35.3125,8.34375 L35.3125,35.53125 C35.3125,35.8125 35.125,36 34.84375,36 L10.46875,36 C10.1875,36 10,35.8125 10,35.53125 L10,8.34375 C10,8.0625 10.1875,7.875 10.46875,7.875 L16.5625,7.875 L16.5625,8.8125 L10.9375,8.8125 L10.9375,35.0625 L34.375,35.0625 L34.375,8.8125 L29.6875,8.8125 L29.6875,7.875 L34.84375,7.875 C35.125,7.875 35.3125,8.0625 35.3125,8.34375 Z M18.4375,11.15625 L18.4375,6.46875 C18.4375,6.1875 18.625,6 18.90625,6 L27.34375,6 C27.625,6 27.8125,6.1875 27.8125,6.46875 L27.8125,11.15625 C27.8125,11.4375 27.625,11.625 27.34375,11.625 L18.90625,11.625 C18.625,11.625 18.4375,11.4375 18.4375,11.15625 Z M19.375,10.6875 L26.875,10.6875 L26.875,6.9375 L19.375,6.9375 L19.375,10.6875 Z M30.625,17.25 L20.3125,17.25 L20.3125,18.1875 L30.625,18.1875 L30.625,17.25 Z M15.15625,17.25 L17.96875,17.25 C18.25,17.25 18.4375,17.4375 18.4375,17.71875 L18.4375,20.53125 C18.4375,20.8125 18.25,21 17.96875,21 L15.15625,21 C14.875,21 14.6875,20.8125 14.6875,20.53125 L14.6875,17.71875 C14.6875,17.4375 14.875,17.25 15.15625,17.25 Z M15.625,20.0625 L17.5,20.0625 L17.5,18.1875 L15.625,18.1875 L15.625,20.0625 Z M20.3125,20.0625 L20.3125,21 L28.75,21 L28.75,20.0625 L20.3125,20.0625 Z M30.625,25.6875 L20.3125,25.6875 L20.3125,26.625 L30.625,26.625 L30.625,25.6875 Z M18.4375,26.15625 L18.4375,28.96875 C18.4375,29.25 18.25,29.4375 17.96875,29.4375 L15.15625,29.4375 C14.875,29.4375 14.6875,29.25 14.6875,28.96875 L14.6875,26.15625 C14.6875,25.875 14.875,25.6875 15.15625,25.6875 L17.96875,25.6875 C18.25,25.6875 18.4375,25.875 18.4375,26.15625 Z M17.5,26.625 L15.625,26.625 L15.625,28.5 L17.5,28.5 L17.5,26.625 Z M20.3125,29.4375 L28.75,29.4375 L28.75,28.5 L20.3125,28.5 L20.3125,29.4375 Z" id="path-1"></path>
    </defs>
    <g id="Icons/32/px-fea:log" stroke="none" stroke-width="1" fill="none" fill-rule="evenodd" transform="translate(-10.000000, -6.000000)">
        <g id="px-fea:log">
            <mask id="mask-2" fill="white">
                <use xlink:href="#path-1"></use>
            </mask>
            <use id="Mask" fill="#4C6472" fill-rule="nonzero" xlink:href="#path-1"></use>
        </g>
    </g>
</svg>