<?xml version="1.0" encoding="UTF-8"?>
<svg width="30px" height="26px" viewBox="0 0 30 26" version="1.1" xmlns="http://www.w3.org/2000/svg" xmlns:xlink="http://www.w3.org/1999/xlink">
    <!-- Generator: Sketch 48.1 (47250) - http://www.bohemiancoding.com/sketch -->
    <title>Mask</title>
    <desc>Created with Sketch.</desc>
    <defs>
        <path d="M23,8 C14.7,8 8,14.8 8,23.1 C8,27 9.5,30.7 12.2,33.6 C12.5,33.8 12.9,34 13.3,34 L32.7,34 C33.1,34 33.5,33.8 33.8,33.5 C36.5,30.7 38,27 38,23.1 C38,14.8 31.3,8 23,8 Z M33.1,32.8 C33,32.9 32.9,33 32.7,33 L13.3,33 C13.2,33 13,32.9 12.9,32.8 C10.4,30.2 9,26.8 9,23.1 C9,15.3 15.3,9 23,9 C30.7,9 37,15.3 37,23.1 C37,26.8 35.6,30.2 33.1,32.8 Z M23,12.9 C17.5,12.9 13,17.5 13,23 L12,23 C12,16.9 16.9,11.9 23,11.9 C25.6,11.9 28.1,12.8 30,14.5 L29.4,15.3 C27.6,13.8 25.3,12.9 23,12.9 Z M24.6,23.5 C24.1,23.2 23.6,23 23,23 C21.3,23 20,24.3 20,26 C20,27.7 21.3,29 23,29 C24.7,29 26,27.7 26,26 C26,25.3 25.7,24.6 25.3,24.1 L32.9,15.8 L32.2,15.1 L24.6,23.5 Z M23,28 C21.9,28 21,27.1 21,26 C21,24.9 21.9,24 23,24 C24.1,24 25,24.9 25,26 C25,27.1 24.1,28 23,28 Z" id="path-1"></path>
    </defs>
    <g id="Icons/32/px-fea:dashboard" stroke="none" stroke-width="1" fill="none" fill-rule="evenodd" transform="translate(-8.000000, -8.000000)">
        <g id="px-fea:dashboard">
            <mask id="mask-2" fill="white">
                <use xlink:href="#path-1"></use>
            </mask>
            <use id="Mask" fill="#4C6472" fill-rule="nonzero" xlink:href="#path-1"></use>
        </g>
    </g>
</svg>