<?xml version="1.0" encoding="UTF-8"?>
<svg width="30px" height="30px" viewBox="0 0 30 30" version="1.1" xmlns="http://www.w3.org/2000/svg" xmlns:xlink="http://www.w3.org/1999/xlink">
    <!-- Generator: Sketch 48.1 (47250) - http://www.bohemiancoding.com/sketch -->
    <title>Mask</title>
    <desc>Created with Sketch.</desc>
    <defs>
        <path d="M23,6 L23,7 C30.7,7 37,13.3 37,21 C37,28.7 30.7,35 23,35 C15.3,35 9,28.7 9,21 C9,17.3 10.4,13.9 13,11.2 C13.5,11.7 14.2,12 15,12 C16.7,12 18,10.7 18,9 C18,7.3 16.7,6 15,6 C13.3,6 12,7.3 12,9 C12,9.5 12.1,10 12.4,10.4 C9.6,13.3 8,17 8,21 C8,29.3 14.7,36 23,36 C31.3,36 38,29.3 38,21 C38,12.7 31.3,6 23,6 Z M15,7 C16.1,7 17,7.9 17,9 C17,10.1 16.1,11 15,11 C13.9,11 13,10.1 13,9 C13,7.9 13.9,7 15,7 Z M17.1,22.8 C17.2,22.9 17.3,23 17.5,23 L21.8,23 L20,29.4 C19.9,29.6 20,29.9 20.2,30 C20.3,30 20.4,30.1 20.4,30.1 C20.5,30.1 20.7,30 20.8,29.9 L30.8,18.9 C30.9,18.8 31,18.5 30.9,18.4 C30.8,18.3 30.7,18 30.5,18 L25.3,18 L27.9,12.7 C28,12.5 28,12.4 27.9,12.2 C27.8,12 27.7,12 27.5,12 L21.5,12 C21.3,12 21.1,12.1 21,12.3 L17,22.3 C17,22.5 17,22.6 17.1,22.8 Z M21.8,13 L26.7,13 L24.1,18.3 C24,18.5 24,18.6 24.1,18.8 C24.2,19 24.4,19 24.5,19 L29.4,19 L21.6,27.6 L23,22.7 C23,22.5 23,22.4 22.9,22.3 C22.8,22.2 22.7,22.1 22.5,22.1 L18.2,22.1 L21.8,13 Z" id="path-1"></path>
    </defs>
    <g id="Icons/32/px-fea:kpi-output" stroke="none" stroke-width="1" fill="none" fill-rule="evenodd" transform="translate(-8.000000, -6.000000)">
        <g id="px-fea:kpi-output">
            <mask id="mask-2" fill="white">
                <use xlink:href="#path-1"></use>
            </mask>
            <use id="Mask" fill="#4C6472" fill-rule="nonzero" xlink:href="#path-1"></use>
        </g>
    </g>
</svg>