<?xml version="1.0" encoding="UTF-8"?>
<svg width="30px" height="28px" viewBox="0 0 30 28" version="1.1" xmlns="http://www.w3.org/2000/svg" xmlns:xlink="http://www.w3.org/1999/xlink">
    <!-- Generator: Sketch 48.1 (47250) - http://www.bohemiancoding.com/sketch -->
    <title>Mask</title>
    <desc>Created with Sketch.</desc>
    <defs>
        <path d="M24.40625,26.6875 L21.59375,26.6875 C21.3125,26.6875 21.125,26.875 21.125,27.15625 L21.125,29.96875 C21.125,30.25 21.3125,30.4375 21.59375,30.4375 L24.40625,30.4375 C24.6875,30.4375 24.875,30.25 24.875,29.96875 L24.875,27.15625 C24.875,26.875 24.6875,26.6875 24.40625,26.6875 Z M23.9375,29.5 L22.0625,29.5 L22.0625,27.625 L23.9375,27.625 L23.9375,29.5 Z M25.71875,17.5 C25.625,17.40625 25.53125,17.3125 25.34375,17.3125 L20.65625,17.3125 C20.5625,17.3125 20.375,17.40625 20.28125,17.5 C20.1875,17.59375 20.1875,17.6875 20.1875,17.78125 L20.9375,25.28125 C20.9375,25.5625 21.125,25.75 21.40625,25.75 L24.5,25.75 C24.6875,25.75 24.96875,25.5625 24.96875,25.28125 L25.71875,17.78125 C25.8125,17.6875 25.8125,17.59375 25.71875,17.5 Z M24.125,24.8125 L21.875,24.8125 L21.125,18.25 L24.875,18.25 L24.125,24.8125 Z M37.71875,31.1875 L24.6875,8.03125 C24.40625,7.375 23.75,7 23,7 C22.25,7 21.59375,7.375 21.3125,8.03125 L8.28125,31.1875 C7.90625,31.84375 7.90625,32.59375 8.28125,33.25 C8.65625,33.90625 9.3125,34.1875 9.96875,34.1875 L36.03125,34.1875 C36.78125,34.1875 37.34375,33.8125 37.71875,33.25 C38.09375,32.59375 38.09375,31.84375 37.71875,31.1875 Z M36.875,32.78125 C36.6875,33.0625 36.3125,33.25 35.9375,33.25 L9.96875,33.25 C9.59375,33.25 9.21875,33.0625 9.03125,32.78125 C8.84375,32.40625 8.84375,32.03125 9.03125,31.65625 L22.0625,8.5 C22.25,8.125 22.625,7.9375 23,7.9375 C23.375,7.9375 23.75,8.125 23.9375,8.5 L36.96875,31.65625 C37.0625,31.9375 37.0625,32.40625 36.875,32.78125 Z" id="path-1"></path>
    </defs>
    <g id="Icons/32/px-fea:alerts" stroke="none" stroke-width="1" fill="none" fill-rule="evenodd" transform="translate(-8.000000, -7.000000)">
        <g id="px-fea:alerts">
            <mask id="mask-2" fill="white">
                <use xlink:href="#path-1"></use>
            </mask>
            <use id="Mask" fill="#4C6472" fill-rule="nonzero" xlink:href="#path-1"></use>
        </g>
    </g>
</svg>