<svg xmlns="http://www.w3.org/2000/svg" viewBox="0 0 308.26 146.7"><defs><style>.cls-1{fill:#fff;}</style></defs><title>Asset 2</title><g id="Layer_2" data-name="Layer 2"><g id="Layer_1-2" data-name="Layer 1"><path class="cls-1" d="M54.76.69A5.7,5.7,0,0,0,49.94.4c-5.54,2.19-18.86,10-34.56,37.51C0,64.76-.54,84.23.2,92.53a5.56,5.56,0,0,0,4.76,5l8.6,1.23a3.1,3.1,0,0,0,2.92-1.21L44.17,60.66A19.05,19.05,0,0,1,66,54.21l73.89,27.23a15.21,15.21,0,0,1,9.86,16L147,121.84,162.51,127l18.05-27.56A3.71,3.71,0,0,1,185,98l8,3.09a3.28,3.28,0,0,0,4-1.47l2.34-4.21a3.39,3.39,0,0,1,4.24-1.5l80,32.2a3.44,3.44,0,0,1,2.17,3.2v13.84a3.51,3.51,0,0,0,3.51,3.51h5.8a3.12,3.12,0,0,0,3.12-3.12v-11.1a1,1,0,0,1,1.25-.9h0a5.35,5.35,0,0,0,6.73-3.28l1.74-4.86a5.11,5.11,0,0,0-3-6.49L207.72,80a3.86,3.86,0,0,1-2.27-2.37h0a10.18,10.18,0,0,0-5.9-6.24L69.9,19.72a5.94,5.94,0,0,1-3.75-5.53V10.27a5.74,5.74,0,0,0-3-5.07Z"/></g></g></svg>